<svg xmlns="http://www.w3.org/2000/svg" width="222.831" height="196.707" viewBox="0 0 222.831 196.707">
  <g id="logo" transform="translate(0.022 0.002)">
    <path id="Path_1" data-name="Path 1" d="M237.724,84.55c.154-.123.314-.264.467-.4a8.61,8.61,0,0,0-1.968-5.11,11.684,11.684,0,0,1,.369,2.933,17.1,17.1,0,0,1-.412,3.69,15.238,15.238,0,0,0,1.544-1.113" transform="translate(-90.944 -30.433)" fill="#009347"/>
    <path id="Path_2" data-name="Path 2" d="M219.586,80.966a.615.615,0,0,0-.234-.049.9.9,0,0,0-.2,0,2.042,2.042,0,0,0-.781.332,2.251,2.251,0,0,0-.572.615h0a3.739,3.739,0,0,0-.547,2.066,3.345,3.345,0,0,0,1.285,2.737,3.83,3.83,0,0,0,.344.252v-.062a4.3,4.3,0,0,1,1.882-3.85,4.772,4.772,0,0,0-.689-1.648,1.126,1.126,0,0,0-.467-.412" transform="translate(-83.655 -31.154)" fill="#009347"/>
    <path id="Path_3" data-name="Path 3" d="M186.182,61.27l-.861.24c-1.113,3.973-2.177,8.487-2.921,12.73a123.39,123.39,0,0,0,3.782-12.97" transform="translate(-70.237 -23.591)" fill="#009347"/>
    <path id="Path_4" data-name="Path 4" d="M46.014,81.757h.1c.726-.135,1.457-.264,2.183-.381l.307-.043h.135a7.071,7.071,0,0,1,.806-.123h.16l1.98-.258h0l.67-.129c3.874-.406,8.419-.953,13.88-1.667l.191-.351h0c.357-.615.707-1.23,1.033-1.845-7.257.978-13.05,1.691-17.834,2.2l-.615.123h-.117q-1.673.2-3.327.461c-.713.117-1.433.24-2.152.375h-.129A56.737,56.737,0,0,0,27.1,85.594,73.077,73.077,0,0,0,12.7,95.9c-.547.615-1.039,1.156-1.464,1.66-.068.08-7.939,8.856-6.23,9.225C6.392,107.1,15.3,94.843,29.429,87.359a58.06,58.06,0,0,1,16.6-5.578Z" transform="translate(-1.843 -29.633)" fill="#009347"/>
    <path id="Path_5" data-name="Path 5" d="M226.165,12.162a10.453,10.453,0,0,1,.074,1.23v.56h0a16.6,16.6,0,0,1-1.544,5.91h0a19.913,19.913,0,0,1-4.5,6.15h0a37.666,37.666,0,0,1-6.765,5.037h0a93.81,93.81,0,0,1-18.5,8.062h0l-1.384.449a146.13,146.13,0,0,1-5.67,15.639c-1.371,3.192-2.823,6.236-4.3,8.991-.357.793-.72,1.58-1.1,2.343v-.351c-.535.941-1.07,1.845-1.611,2.675a21.634,21.634,0,0,0,.369,3.075,5.466,5.466,0,0,0,.572,1.71,1.046,1.046,0,0,0,.172.228,2.423,2.423,0,0,0,.664-.289c-.074-.615-.129-1.316-.172-2.1,4.8-7.453,9.889-19.452,12.914-29.992l2.029-.658a91.352,91.352,0,0,0,18.234-7.939,36.284,36.284,0,0,0,6.506-4.858,18.652,18.652,0,0,0,4.3-5.762,15.258,15.258,0,0,0,1.433-5.443,9.312,9.312,0,0,0-.068-1.667h0a7.546,7.546,0,0,0-1.845-4.083c.074.326.135.652.178.99Z" transform="translate(-69.645 -4.267)" fill="#009347"/>
    <path id="Path_6" data-name="Path 6" d="M143,31.823a104.761,104.761,0,0,1,19.974-12.711h0l.062-.031h0c.769-.375,1.537-.713,2.312-1.07a89.509,89.509,0,0,1,12.533-4.477c.916-.2,1.882-.375,2.872-.535a51.044,51.044,0,0,1,7.146-.652h2.331a23.074,23.074,0,0,1,4.864.683,8.814,8.814,0,0,0-.879-.72,10.258,10.258,0,0,0-2.94-1.095,22.883,22.883,0,0,0-4.028-.5h0c-.51,0-1.033-.037-1.562-.037h-.695a50.5,50.5,0,0,0-6.962.615c-.959.154-1.894.326-2.774.51a86.754,86.754,0,0,0-12.3,4.409c-.787.357-1.544.689-2.269,1.045h-.049A103.489,103.489,0,0,0,140.9,29.9l-.357-.437h0l.357.437A88.777,88.777,0,0,0,127.63,43.181l.683-.1,3.6-.615a90.707,90.707,0,0,1,11.07-10.67" transform="translate(-49.15 -4.113)" fill="#009347"/>
    <path id="Path_7" data-name="Path 7" d="M205.8,29.17c0,.307.031.615.031.966a43.127,43.127,0,0,1-1,8.321c.75-.3,1.513-.615,2.282-.947a32.6,32.6,0,0,0,.351-4.44c0-2.626-.615-3.844-1.66-3.9" transform="translate(-78.874 -11.232)" fill="#009347"/>
    <path id="Path_8" data-name="Path 8" d="M188.925,115.66l-.111.1c-.117.123-.332.338-.615.615-1.611,1.568-5.449,5.147-7.38,5.535h0c2.657-.4,4.846-.664,6.365-.83a32.929,32.929,0,0,0,3.635-3.628l-.326-.221a7.023,7.023,0,0,1-1.562-1.574" transform="translate(-69.629 -44.533)" fill="#009347"/>
    <path id="Path_9" data-name="Path 9" d="M149,64.81c-9.046,2.146-18.6,3.948-27.864,5.418-2.109.338-4.194.658-6.267.953l-.615.916h0l-4.92,7.312-.129.191c-.3.578-.578,1.144-.824,1.673-.166.369-.314.713-.449,1.052a8.715,8.715,0,0,1,2.54.357l.713-1.07,4.92-7.33h0l.935-1.359q3.376-.492,6.814-1.033c8.068-1.285,16.34-2.817,24.31-4.606.271-.83.547-1.648.836-2.46" transform="translate(-41.565 -24.954)" fill="#009347"/>
    <path id="Path_10" data-name="Path 10" d="M261.567,66.776l1.267-.228a14.328,14.328,0,0,0,.357-2.927,3.173,3.173,0,0,0-1.63-3v.074a17.982,17.982,0,0,1-1.261,6.273c.43-.055.867-.117,1.3-.191" transform="translate(-100.231 -23.341)" fill="#009347"/>
    <path id="Path_11" data-name="Path 11" d="M160.339,125.571c.855-.191,1.7-.369,2.534-.541a23.264,23.264,0,0,0,2.023-1.8c.566-.615,1.113-1.162,1.642-1.722-.055-.068-.117-.129-.166-.2a8.824,8.824,0,0,1-1.23-2.189c-.935.978-1.943,1.98-2.964,2.97h0s-2.226,2.374-1.845,3.481" transform="translate(-61.724 -45.865)" fill="#009347"/>
    <path id="Path_12" data-name="Path 12" d="M207.521,94a9.587,9.587,0,0,1-.652-3.3,15.99,15.99,0,0,0-.99,5.32,9.433,9.433,0,0,0,.615,3.511,3.825,3.825,0,0,0,1.23,1.679,12.453,12.453,0,0,1-.2-2.263,16.279,16.279,0,0,1,.5-3.93A8.223,8.223,0,0,1,207.54,94" transform="translate(-79.277 -34.923)" fill="#009347"/>
    <path id="Path_13" data-name="Path 13" d="M267.459,95.012a32.2,32.2,0,0,1-2.626,2.46,14.941,14.941,0,0,1-6.316,3.4,7.718,7.718,0,0,1-1.562.166h-.615a4.6,4.6,0,0,0,4.821,1.519c3.216-.67,7.687-3.831,13.234-11.512a5.339,5.339,0,0,0,1.341-2.78c0-.615-.449-.8-1.076-.67a3.118,3.118,0,0,0-1.519,1.027,39.973,39.973,0,0,1-5.707,6.426" transform="translate(-98.706 -33.713)" fill="#009347"/>
    <path id="Path_14" data-name="Path 14" d="M265.686,81.667a26.21,26.21,0,0,0-2.829,4.594,6.8,6.8,0,0,0-.707,2.583,1.916,1.916,0,0,0,.043.449h0a5.313,5.313,0,0,0,1.568-.75,17.164,17.164,0,0,0,1.427-1.058,46.246,46.246,0,0,1,4.92-6.869,2.952,2.952,0,0,0,.824-1.943,1.949,1.949,0,0,0-1.716-2.122,4.635,4.635,0,0,1-.2.67,4.261,4.261,0,0,1-.806,1.3h0c-.48.615-1.464,1.734-2.515,3.149" transform="translate(-100.943 -29.475)" fill="#009347"/>
    <path id="Path_15" data-name="Path 15" d="M62.014,121.3v-.117h0v-.037a39.7,39.7,0,0,1,2.632-9.84v-.049c.351-.959.83-2.079,1.371-3.259h0c.074-.154.148-.32.221-.48l.2-.43h0c.381-.83.763-1.654,1.187-2.509a.762.762,0,0,0,.141-.2c.879-1.728,1.8-3.456,2.657-5.012l.062-.148c.209-.369.406-.713.615-1.07h0c1.4-2.521,2.46-4.342,2.6-4.557h0l1.224-2.06A.664.664,0,0,0,74.99,91a.461.461,0,0,0-.363-.3,4.132,4.132,0,0,0-.48-.037h-.086a6.3,6.3,0,0,0-.658.1,7.084,7.084,0,0,0-1.39.461h0v.031c-.16.228-1.255,2.072-2.62,4.563h0c-.191.32-.369.615-.566.984v.055l-.074.148c-.849,1.55-1.765,3.266-2.638,4.981a1.747,1.747,0,0,1-.2.307c-.387.793-.75,1.568-1.107,2.349v.049c-.068.154-.135.283-.184.394s-.148.326-.221.48h0c-.523,1.156-.984,2.232-1.316,3.136v.092a38.307,38.307,0,0,0-2.552,9.5v.08h0v.1a1.769,1.769,0,0,1-.037.394c-.031.357-.061.855-.061,1.427v.092a12.349,12.349,0,0,0,.184,2.2,5.424,5.424,0,0,0,.615,1.845l.037.055h0a2.288,2.288,0,0,0,.344.437h0a1.519,1.519,0,0,0,.572.344,13.327,13.327,0,0,1-.129-1.986c0-.615.031-1.156.062-1.537a1.275,1.275,0,0,1,.043-.443" transform="translate(-23.28 -34.911)" fill="#009347"/>
    <path id="Path_16" data-name="Path 16" d="M67.091,154.349l-.184-.037a3.751,3.751,0,0,1-.572.892,4.864,4.864,0,0,1-1.568,1.181l-.074.031h-.141c-.344.123-.707.246-1.088.351H63.3a18.67,18.67,0,0,1-3.653.443,10.643,10.643,0,0,1-1.679-.123h0c-.234-.037-.467-.092-.7-.148a7.718,7.718,0,0,0,3.831,1.79,13.93,13.93,0,0,0,4.883-.307h.055c.338-.1.676-.209,1.015-.326h.074a3.512,3.512,0,0,0,1.15-.861,2.023,2.023,0,0,0,.535-1.273,1.39,1.39,0,0,0-.314-.873,2.608,2.608,0,0,0-1.408-.787" transform="translate(-22.059 -59.41)" fill="#009347"/>
    <path id="Path_17" data-name="Path 17" d="M92.018,140.881a3.942,3.942,0,0,1-1.4-.529,3.64,3.64,0,0,1-.941-.842,6.766,6.766,0,0,1-.892.615,16.2,16.2,0,0,1-1.408,1.162,11.168,11.168,0,0,1-4.194,1.894,8.389,8.389,0,0,1-1.728.184,7.582,7.582,0,0,1-1.353-.123,6.113,6.113,0,0,0,5.744,1.593,11.611,11.611,0,0,0,6.15-3.948" transform="translate(-30.849 -53.716)" fill="#009347"/>
    <path id="Path_18" data-name="Path 18" d="M99.716,183.47h0Z" transform="translate(-38.4 -70.642)" fill="#009347"/>
    <path id="Path_19" data-name="Path 19" d="M98.143,170.72a1.943,1.943,0,0,0,.781.756,1.624,1.624,0,0,0,.283.08h.141a8.056,8.056,0,0,1,.67-2.743c.873-2.048,2.737-4.569,6.18-7.263a43.13,43.13,0,0,1,4.778-3.2h0c1.359-.793,2.878-1.593,4.538-2.386.664-1.193,1.31-2.417,1.937-3.647a70.074,70.074,0,0,0-8.69,4.194l-.074.061a40.921,40.921,0,0,0-4.625,3.075h0c-3.315,2.583-5.024,4.957-5.781,6.765h0a6.377,6.377,0,0,0-.615,2.54,3.352,3.352,0,0,0,.437,1.753Z" transform="translate(-37.613 -58.648)" fill="#009347"/>
    <path id="Path_20" data-name="Path 20" d="M163.164,101c.172-.572.344-1.132.5-1.679a65.961,65.961,0,0,1,1.193-10.959,2.344,2.344,0,0,0-.289.043l-.2.049c-.781,2.853-2.614,9.372-4.975,16.549,1.4-1.4,2.706-2.774,3.764-4" transform="translate(-61.382 -34.022)" fill="#009347"/>
    <path id="Path_21" data-name="Path 21" d="M139.4,93.273l-.037.117v.068c-1.027,2.331-2.263,4.809-3.4,7.251a52.126,52.126,0,0,0-2.8,7.011,14.009,14.009,0,0,0-.664,3.831,4.952,4.952,0,0,0,.043.683l.123-.086a8.352,8.352,0,0,0,1.045-.984c.424-.467.9-1.045,1.4-1.716,1.421-4.3,4.108-9.286,6-13.585a3.948,3.948,0,0,0,.271-1.3c0-1.095-.8-1.464-1.943-1.285" transform="translate(-51.021 -35.897)" fill="#009347"/>
    <path id="Path_22" data-name="Path 22" d="M235.912,129.11c.615-.652-.541-1.082-3.075-1.23l-.271.148a13.86,13.86,0,0,1-1.765.707,42.114,42.114,0,0,1-4.618,1.23c-.873.184-1.777.363-2.694.529a18.043,18.043,0,0,1,5.867,1.015c3.143-.689,5.75-1.5,6.537-2.361" transform="translate(-86.058 -49.238)" fill="#009347"/>
    <path id="Path_23" data-name="Path 23" d="M166.746,134c-1.439.172-2.853.344-4.237.529h-.074A253.36,253.36,0,0,0,134.2,139.7c-2.46.615-4.7,1.23-6.765,1.845-.3.615-.615,1.193-.91,1.759a82.873,82.873,0,0,1-8.88,15.405h0a27.309,27.309,0,0,1-2.46,3.143,30.694,30.694,0,0,1-5.941,5.11,22.428,22.428,0,0,1-9.163,3.53h-.074c-.48.043-.941.062-1.384.062a12.416,12.416,0,0,1-2.866-.32c1.384,1.328,3.585,2.171,7.078,1.894,6.642-.916,11.6-5.227,14.317-8.228a26.3,26.3,0,0,0,2.355-2.97h0a81.872,81.872,0,0,0,8.8-15.245c.387-.72.781-1.482,1.175-2.275,2.189-.664,4.637-1.353,7.324-2.036,1.23-.307,2.515-.615,3.819-.91h0c1.611-.369,4.237-.941,7.749-1.605h0q3.788-.72,7.933-1.39h.148l1.925-.3.3-.043,1.956-.3h.191l.867-.123A19.587,19.587,0,0,1,166.753,134Z" transform="translate(-36.879 -51.594)" fill="#009347"/>
    <path id="Path_24" data-name="Path 24" d="M94.848,106.695l.271-.221c.43-.307.8-.5,1.07-.72a1.605,1.605,0,0,0,.4-.424,1.667,1.667,0,0,0,.228-.947.615.615,0,0,0-.049-.3.2.2,0,0,0-.092-.08,1.015,1.015,0,0,0-.24-.086,2.387,2.387,0,0,0-.572-.062,5.221,5.221,0,0,0-1.052.123,7.73,7.73,0,0,0-2.921,1.347,13.707,13.707,0,0,0-2.681,2.62,22.822,22.822,0,0,0-3.69,7.158,15.571,15.571,0,0,0-.769,4.385,6.672,6.672,0,0,0,.166,1.544,3.229,3.229,0,0,0,.43,1.064,1.23,1.23,0,0,0,.32.338.867.867,0,0,0,.492.141h.228v-.129c0-4.76,3.425-12.724,8.462-15.731" transform="translate(-32.639 -39.99)" fill="#009347"/>
    <path id="Path_25" data-name="Path 25" d="M117.106,104.782a3.548,3.548,0,0,0-1.642-3.192v.264a7.509,7.509,0,0,1-1.6,4.741,8.456,8.456,0,0,1-2.515,2.109,2.2,2.2,0,0,1,.486.806,2.878,2.878,0,0,1,.141.935,4.648,4.648,0,0,1-.074.769,6.73,6.73,0,0,0,5.19-6.433" transform="translate(-42.881 -39.116)" fill="#009347"/>
    <path id="Path_26" data-name="Path 26" d="M129.88,134.3q1.593-.572,3.2-1.1c.615-1.482,1.23-2.9,1.759-4.237a14.292,14.292,0,0,1-7.613,4.668l-.178.049-.492.08h-.154a2.021,2.021,0,0,1-.258,0H126a3.075,3.075,0,0,0,1.488,1.4c.787-.307,1.574-.615,2.368-.892" transform="translate(-48.522 -49.654)" fill="#009347"/>
    <path id="Path_27" data-name="Path 27" d="M111.053,118.963a3.019,3.019,0,0,0-.387.1l-.357,1.15c-.184.578-.4,1.267-.615,1.974-.3.966-.615,1.968-.824,2.774a17.521,17.521,0,0,0,1.568-1.378,25.291,25.291,0,0,0,1.925-2.029v-.1a4.969,4.969,0,0,0,.271-1.4c0-.984-.615-1.3-1.611-1.095" transform="translate(-41.926 -45.782)" fill="#009347"/>
    <path id="Path_28" data-name="Path 28" d="M105.423,139.444c2.091-.437,4.981-2.355,8.13-5.621a4.4,4.4,0,0,1-.787-.867,5.59,5.59,0,0,1-.652-1.316,15.472,15.472,0,0,1-3.561,2.946,20.294,20.294,0,0,1-3.284,2.251,9.557,9.557,0,0,1-2.509.953,7.151,7.151,0,0,1-1.31.154c.578,1.316,1.845,1.943,3.973,1.5" transform="translate(-39.07 -50.686)" fill="#009347"/>
    <path id="Path_29" data-name="Path 29" d="M218.665,97.1l-.264.412-.037.055a27.806,27.806,0,0,1-2.116,2.589,11.155,11.155,0,0,1-3.751,3.376l-.455.338a18.843,18.843,0,0,1-6.9,3.136,10.983,10.983,0,0,1-2.269.246,8.609,8.609,0,0,1-1.562-.141,5.658,5.658,0,0,0,2.534,1.507q3.376-.406,6.3-.664a23.664,23.664,0,0,0,10.092-8.216l.535-.83c2.915-.664,6.248-2.9,9.329-5.922a12.159,12.159,0,0,1,1.089-3.186,21.85,21.85,0,0,1,2.312-3.635,9.8,9.8,0,0,1-1.125-.092l-.615.763h0c-1.544,2.06-6.4,7.8-13.1,10.264" transform="translate(-77.518 -33.14)" fill="#009347"/>
    <path id="Path_30" data-name="Path 30" d="M142.525,242.474h0a1.476,1.476,0,0,0-.387-.553,1.845,1.845,0,0,0-.375-.271h0a2.933,2.933,0,0,0-.652-.246h0a3.687,3.687,0,0,0-.375-.074h0v.061h0v.031h0a.252.252,0,0,1-.031.055.346.346,0,0,0,0,.049,3.61,3.61,0,0,1-.8.9h0a5.283,5.283,0,0,1-1.279.695h0a25.455,25.455,0,0,1-3.536.984h0c-1.476.326-3.3.683-5.43,1.07h-.049c-3.979.652-8.763,1.55-13.413,2.7a91.015,91.015,0,0,0-8.788,2.515h-.068c-1.845.541-3.425,1.132-4.821,1.667s-2.54,1-3.555,1.322a2.036,2.036,0,0,0-.166,1.088c.369,2.392,4.243-.369,11.07-2.4,2.7-.966,5.812-1.783,8.917-2.552,4.692-1.156,9.514-2.06,13.529-2.712h.031c2.122-.387,3.93-.738,5.381-1.064a24.065,24.065,0,0,0,3.345-.922h0a4.114,4.114,0,0,0,.978-.523h0a1.961,1.961,0,0,0,.547-.615h0a1.488,1.488,0,0,0,.178-.707,1.4,1.4,0,0,0-.1-.529" transform="translate(-38.044 -92.919)" fill="#009347"/>
    <path id="Path_31" data-name="Path 31" d="M276.09,200.75Z" transform="translate(-106.311 -77.295)" fill="#009347"/>
    <path id="Path_32" data-name="Path 32" d="M284.1,132.923l-10.258,36.13h0l-1.23,4.489h0l-.3,1.076h0a7.245,7.245,0,0,1-1.98,3.284,9.225,9.225,0,0,1-2.946,1.968,7.742,7.742,0,0,1-1.107.363,3.392,3.392,0,0,0,0,.351c.061,1.058.886,1.537,1.943,1.482a7.273,7.273,0,0,0,5.83-4.84l.289-1.076,1.23-4.5,10.258-36.13a2.693,2.693,0,0,0,.111-1.156,1.553,1.553,0,0,0-1.808-1.568l-.037.135Z" transform="translate(-102.534 -51.132)" fill="#009347"/>
    <path id="Path_33" data-name="Path 33" d="M142.682,204.875a6.875,6.875,0,0,0,3.69-3.788l.369-1.052,1.562-4.372,13.462-37.39a2.835,2.835,0,0,0,.2-1.144,1.559,1.559,0,0,0-1.734-1.728H160.1a1.142,1.142,0,0,1-.117.344h0l-13.462,37.39h0l-1.562,4.372h0l-.369,1.052h0a7.251,7.251,0,0,1-2.109,3.075,8.947,8.947,0,0,1-2.94,1.728,7.17,7.17,0,0,1-.842.234v.209a1.482,1.482,0,0,0,1.261,1.58c.615-.117,1.2-.221,1.783-.326l.959-.166" transform="translate(-53.409 -59.834)" fill="#009347"/>
    <path id="Path_34" data-name="Path 34" d="M148.29,225.58h0" transform="translate(-57.104 -86.855)" fill="#009347"/>
    <path id="Path_35" data-name="Path 35" d="M302.947,148.063v-.148a13.565,13.565,0,0,0-.141-1.593,21.764,21.764,0,0,0-3.333-9.452,23.456,23.456,0,0,1,1.636,6.383h0c.068.547.117,1.1.148,1.673v.141c.037.584.049,1.175.049,1.765a23.9,23.9,0,0,1-.086,2.46h0a47.654,47.654,0,0,1-3.075,13.191.852.852,0,0,1-.037.117l-.117.277h0c-.141.344-.277.67-.418,1h0c-.141.344-.289.676-.437,1.009h0l-.08.191h0c-.344.763-.695,1.494-1.039,2.208h0a37.432,37.432,0,0,1-3.813,6.654h0a40.846,40.846,0,0,1-7.38,8.321,43.394,43.394,0,0,1-10.455,7.171,29.242,29.242,0,0,1-12.607,3.013A26.5,26.5,0,0,1,251,190.108c13.726,8.29,26.887,2.423,35.914-5.861a39.8,39.8,0,0,0,7.152-8.1,36.431,36.431,0,0,0,3.69-6.414h0c.357-.732.713-1.482,1.064-2.263,0-.055.055-.111.08-.172.141-.326.289-.652.431-.984l.406-.972.111-.264h0a46.3,46.3,0,0,0,3.075-12.97,32.275,32.275,0,0,0,.037-4.071" transform="translate(-96.65 -52.699)" fill="#009347"/>
    <path id="Path_36" data-name="Path 36" d="M270.26,127.467a22.139,22.139,0,0,1,9.84-3.21,16.66,16.66,0,0,1,6.574.935,14.231,14.231,0,0,0-2.46-1.4,14.888,14.888,0,0,0-6.088-1.23h-.916a20.8,20.8,0,0,0-9.255,3.032,20.208,20.208,0,0,0-6.334,5.848,14.637,14.637,0,0,0-2.62,8.345v.8a6.224,6.224,0,0,0,.769,2.964,3.154,3.154,0,0,0,1.021,1.033c-.043-.314-.08-.646-.1-1-.381-7.275,4.108-12.859,9.538-16.112" transform="translate(-99.73 -47.189)" fill="#009347"/>
    <path id="Path_37" data-name="Path 37" d="M206.5,150.25v-.2a5.812,5.812,0,0,1,.43-2.238,3.954,3.954,0,0,1,1.23-1.648,2.6,2.6,0,0,1,1.316-.541,2.281,2.281,0,0,1,.289,0,2.6,2.6,0,0,1,.75.129,12.915,12.915,0,0,1,5.043-1.845,9.926,9.926,0,0,1,3.339.228,6.064,6.064,0,0,0-.738-.615,7.822,7.822,0,0,0-4.5-1.347,8.773,8.773,0,0,0-.9.043,8.984,8.984,0,0,0-1.648.369,12.916,12.916,0,0,0-2.152.892,9.465,9.465,0,0,0-3.874,3.511,7.78,7.78,0,0,0-.984,3.9q0,.5.055,1.052a7.43,7.43,0,0,0,.338,1.6,7.317,7.317,0,0,0,.787,1.593,12.659,12.659,0,0,0,.775,1.07,9.3,9.3,0,0,1-.2-1.23,9.618,9.618,0,0,1,.615-4.754" transform="translate(-78.592 -54.74)" fill="#009347"/>
    <path id="Path_38" data-name="Path 38" d="M214.773,219.465a20.909,20.909,0,0,1-5.32,6.1,29.562,29.562,0,0,1-14.925,5.978,19.508,19.508,0,0,1-1.98.1,18.215,18.215,0,0,1-6.328-1.162,16.358,16.358,0,0,0,11.125,2.718c9.686-1.015,20.565-7.638,21.278-18.111q-.941-.75-1.845-1.4a17.1,17.1,0,0,1-2,5.75" transform="translate(-71.708 -82.277)" fill="#009347"/>
    <path id="Path_39" data-name="Path 39" d="M261.2,169.638a13.179,13.179,0,0,0,2.165-.277l.849-2.976-.707-.184a3.48,3.48,0,0,1-1.1.855,10.042,10.042,0,0,1-4.065.892h-.615a10.9,10.9,0,0,1-3.026-.424,9.225,9.225,0,0,0,6.488,2.1" transform="translate(-98.075 -63.992)" fill="#009347"/>
    <path id="Path_40" data-name="Path 40" d="M189.49,213.829a11.186,11.186,0,0,1,.781-1.753c.683-1.144,6.014-9.28,17.262-7-.117-.32-.258-.615-.394-.953A19.826,19.826,0,0,0,200.756,203a14.224,14.224,0,0,0-8.954,3.075,14.606,14.606,0,0,0-3.382,3.721,9.537,9.537,0,0,0-.676,1.519,9.956,9.956,0,0,0-.394,2.817,12.149,12.149,0,0,0,.068,1.23,6.236,6.236,0,0,0,1.845,3.9c-.055-.271-.1-.553-.135-.842a11.8,11.8,0,0,1,.381-4.557" transform="translate(-72.143 -78.161)" fill="#009347"/>
    <path id="Path_41" data-name="Path 41" d="M225.53,163.955c4.065-.43,7.33-2.349,9.022-5.147a10.983,10.983,0,0,1-1.23-3.518l-.049.141a10.455,10.455,0,0,1-2.411,3.352,13.935,13.935,0,0,1-8.142,3.475,17.217,17.217,0,0,1-1.845.1,13.216,13.216,0,0,1-3.395-.424c1.593,1.507,4.3,2.411,7.995,2.023" transform="translate(-83.744 -59.792)" fill="#009347"/>
    <path id="Path_42" data-name="Path 42" d="M41.232,49.2H41.3c.732-.135,1.464-.258,2.189-.375q1.685-.271,3.382-.467h0l.676-.135c5.344-.56,11.974-1.384,20.528-2.552-.486.793-1.433,2.374-2.392,4.1-.683,1.23-1.371,2.54-1.9,3.69-.264.572-.486,1.107-.652,1.58a5.037,5.037,0,0,0-.289,1.23.947.947,0,0,0,.135.615,1.168,1.168,0,0,0,.3.3.615.615,0,0,0,.449.086,1.273,1.273,0,0,0,.615-.363,6.58,6.58,0,0,0,.578-.676L65,56.14l.2-.3c.357-.5.8-1.168,1.353-2l4.92-7.337h0l1.082-1.47q3.376-.492,6.814-1.039c10.049-1.593,20.417-3.573,30.134-5.965-3.358,8.9-5.91,19.113-5.91,28.209v.615A72.528,72.528,0,0,1,97.532,73.3h0s-2.743,2.915-1.63,3.794c.83.658,3.2-1.513,4.348-2.657,1.384-1.408,2.657-2.786,3.69-4.034.756,3.88,2.681,6.47,5.984,5.787,2.46-.517,5.535-2.749,9.483-7.583,1.095,3.075,3.837,4.815,7.952,3.96s8.856-3.985,12.429-8.929l.535-.824c4.471-1.021,9.926-5.725,13.954-11.3a18.413,18.413,0,0,0,4.557.129c-3.868,4.188-5.1,7.4-5.1,9.723,0,2.681,2.054,5.295,5.805,4.52,3.229-.695,7.724-3.831,13.259-11.512a5.359,5.359,0,0,0,1.341-2.78c0-.535-.443-.806-1.07-.676a3.075,3.075,0,0,0-1.519,1.033c-3.579,4.92-7.779,8.683-10.018,9.145-.984.2-1.605-.3-1.605-1.722,0-3.757,5.092-9.643,6.347-11.156a2.958,2.958,0,0,0,.806-1.956,1.956,1.956,0,0,0-2.325-2.109,47.242,47.242,0,0,1-6.709.947,18.978,18.978,0,0,0,1.968-7.743,3.04,3.04,0,0,0-3.936-3.21c-3.573.744-8.4,5.59-8.4,11.137,0,2.774,1.23,4.477,4.022,5.6-2.411,3.179-5.633,5.818-8.61,6.765a16.094,16.094,0,0,0,1.23-6.15c0-5.006-3.309-8.61-7.515-7.736-5.006,1.033-7.958,6.562-7.958,11.684,0,4.741,3.222,7.38,7.515,7.743-1.525,2.46-3.757,4.354-5.725,4.766-3.216.664-5.369-2.288-5.369-6.845A19.273,19.273,0,0,1,129.2,50.04a1.562,1.562,0,0,0,.363-.972c0-.806-.541-1.408-1.23-1.23a3.075,3.075,0,0,0-.892.547,26.063,26.063,0,0,0-4.028,4.5,21.9,21.9,0,0,0-4.557,12.392v.049c-2.46,3.075-4.662,5.295-6.26,5.627-1.341.283-2.417-1.378-2.681-6.593,4.8-7.453,9.883-19.452,12.914-29.992l2.036-.658A91.486,91.486,0,0,0,143.1,25.773a36.363,36.363,0,0,0,6.513-4.864,18.726,18.726,0,0,0,4.219-5.756,15.375,15.375,0,0,0,1.427-5.443,8.775,8.775,0,0,0-.061-1.667h0a7.693,7.693,0,0,0-3.555-5.6c-2.866-1.968-7.06-2.638-12.047-2.4a50.994,50.994,0,0,0-5.424.578,75.37,75.37,0,0,0-11.8,2.946A108.235,108.235,0,0,0,89,22.015a93.261,93.261,0,0,0-18.2,19.55l-1.027.148h-.049c-5.51.633-10.135,1.052-13.382,1.334-1.624.123-2.909.209-3.782.264l-1.347.08h0q-2.823.221-5.67.615c-.615.086-1.23.172-1.845.271a74.412,74.412,0,0,0-8.726,1.913A57.709,57.709,0,0,0,12.149,59.1,61.983,61.983,0,0,0,6.455,64.99c-.068.08-7.939,8.849-6.236,9.225,1.39.314,10.3-11.943,24.427-19.427a58.016,58.016,0,0,1,16.6-5.578M154.9,37.7c.535-.111,1.07.4,1.07,2.1a14.145,14.145,0,0,1-.806,4.637,4.434,4.434,0,0,1-2.146-3.573c0-1.525,1.076-2.995,1.882-3.161M132.278,52.764c0-2.146,1.07-3.893,2.946-4.3,2.417-.5,3.493,2.853,3.493,6.248a22.656,22.656,0,0,1-.363,3.382c-3.395-.363-6.076-2.134-6.076-5.35m-22.354,6.629a52,52,0,0,1,.615-6.925,132.217,132.217,0,0,1,3.481-15.583q1.845-.5,3.69-1.015c-1.451,6.586-4.016,15.989-7.779,23.523m8.69-28.086c-1.1.369-2.159.707-3.186,1.033,1.279-3.776,2.46-6.347,3.161-6.488.357-.074.535.51.535,1.943a33.377,33.377,0,0,1-.51,3.511M90.946,24.776a104.872,104.872,0,0,1,19.968-12.705h0l.061-.031h0c.769-.381,1.544-.713,2.318-1.07a88.056,88.056,0,0,1,12.533-4.483c.91-.2,1.845-.375,2.866-.529a52.045,52.045,0,0,1,7.146-.658c.793,0,1.574,0,2.337.031a16.542,16.542,0,0,1,7.62,1.808,9.987,9.987,0,0,1,1.624,1.4,4.526,4.526,0,0,1,.861,3,5.867,5.867,0,0,1-.117.941,8.794,8.794,0,0,1-1.7,3.579,16.2,16.2,0,0,1-1.058,1.261c-.215.221-.43.449-.658.67a45.257,45.257,0,0,1-11.07,7.232c-3.241,1.6-6.568,2.989-9.489,4.1A48.073,48.073,0,0,0,125.68,18.9c0-2.952-.806-4.12-2.06-3.862-2.743.566-7.927,8.253-12.336,18.548-2.9.861-5.086,1.445-6.057,1.7h0l-.191.043c-8.357,1.919-17.115,3.555-25.651,4.92-1.31.209-2.614.406-3.917.615A89.436,89.436,0,0,1,90.94,24.789" transform="translate(0)"/>
    <path id="Path_43" data-name="Path 43" d="M59.1,129.293h.049c.344-.092.683-.209,1.021-.326l.074-.031a3.425,3.425,0,0,0,1.15-.861,1.986,1.986,0,0,0,.529-1.267,1.359,1.359,0,0,0-.307-.873,2.632,2.632,0,0,0-1.414-.787,9.408,9.408,0,0,0-2.577-.234h0a3.5,3.5,0,0,1-.615-.062h-.074a2.8,2.8,0,0,1-1.513-.75h0a3.37,3.37,0,0,1-.547-.695h0v-.037a9.822,9.822,0,0,1-.99-4.748c0-.615.037-1.15.068-1.531A1.257,1.257,0,0,1,54,116.65v-.184a39.807,39.807,0,0,1,2.638-9.84v-.043c.351-.959.83-2.079,1.371-3.266h0c.074-.154.148-.32.221-.48l.2-.437h0c.381-.83.763-1.654,1.181-2.509a.615.615,0,0,0,.141-.2c.886-1.728,1.808-3.456,2.663-5.012l.055-.148c.215-.375.412-.72.615-1.07h0c1.408-2.521,2.46-4.342,2.6-4.557h0c.418-.75.812-1.445,1.125-2.017a.658.658,0,0,0,.068-.529.461.461,0,0,0-.369-.3,3.031,3.031,0,0,0-.474-.037h-.086a6.1,6.1,0,0,0-.658.1,8.726,8.726,0,0,0-3.376,1.605,23.886,23.886,0,0,0-5.184,5.775,71.6,71.6,0,0,0-5.9,10.947c-1.488,3.4-2.46,6.094-2.669,6.728v.049A28.393,28.393,0,0,0,47,118.845a18.344,18.344,0,0,0,.271,3.186,11.242,11.242,0,0,0,1.371,3.807h0a8.173,8.173,0,0,0,5.578,3.745,13.763,13.763,0,0,0,4.883-.314" transform="translate(-18.105 -33.125)"/>
    <path id="Path_44" data-name="Path 44" d="M90.848,149.808c6.642-.916,11.6-5.221,14.317-8.222a25.688,25.688,0,0,0,2.362-2.976h0a81.613,81.613,0,0,0,8.819-15.282c.387-.713.781-1.476,1.168-2.275,2.2-.664,4.637-1.347,7.33-2.029a254.175,254.175,0,0,1,28.387-5.2h.049c1.4-.184,2.81-.357,4.256-.529,5.8-.787,15.553-2.349,17.219-4.17s-9.587-1.913-26.917.67a171.247,171.247,0,0,0-27.625,4.957l1.045-2.5c3.967-10.393,7.306-22.287,8.364-26.186a2.841,2.841,0,0,0,.357-1.31c0-.984-.806-1.353-1.882-1.132a7.078,7.078,0,0,0-3.936,2.651,15.728,15.728,0,0,0-1.427,2.042,36.721,36.721,0,0,0-1.968,4.163c-4.022,9.059-9.225,17.022-11.537,17.5-.8.172-1.23-.455-1.23-2.152,0-5.1,4.3-12.515,6.974-18.615a3.985,3.985,0,0,0,.264-1.31c0-1.162-.892-1.513-2.14-1.23a14.392,14.392,0,0,0-6.98,4.04c-1.23,1.15-1.783,2.152-1.783,2.78s.615.855,1.162.744a6.149,6.149,0,0,0,.892-.363c.271-.055.357.1.357.283a6.524,6.524,0,0,1-.443,1.23c-1.113,2.663-2.5,5.891-3.456,8.929-4.225,5.768-7.65,8.757-8.972,9.028-.541.117-.72-.209-.72-.652,0-.806,1.845-6.562,2.239-7.8a4.92,4.92,0,0,0,.264-1.4c0-.984-.615-1.3-1.605-1.1-1.882.394-4.655,2.755-5.639,5.645-1.55,4.249-4.575,7.564-6.47,7.952-2.325.48-3.3-1.814-3.3-4.3,0-5.535,4.649-15.448,11.07-16.783,1.783-.375,3.573-.123,3.573,1.673,0,2.86-2.774,2.718-2.774,3.973,0,1.156,1.968,1.107,3.222.849,1.427-.3,5.363-2,5.363-6.476,0-3.579-3.487-4.643-7.958-3.69-10.553,2.189-18.867,14.464-18.867,22.6,0,4.649,3.487,7.417,7.6,6.562a12.4,12.4,0,0,0,7.066-5.043c.264,2.091,1.605,3.241,4.3,2.687,2.6-.541,6.433-3.376,10.455-8.241v.344c0,2.915,1.082,4.52,2.774,4.846a2.937,2.937,0,0,0,.467.055,1.721,1.721,0,0,0,.252,0,2.4,2.4,0,0,0,.3,0h.074a5.378,5.378,0,0,0,.535-.086l.228-.055c5.584-1.433,12.589-12.373,12.589-12.373s-2.159,6.377-5.572,14.28c-1.23.406-2.491.83-3.733,1.273-1.728.615-3.45,1.3-5.147,2.017a68.878,68.878,0,0,0-11.445,5.91H92.97c-.344.228-.689.461-1.015.689a29.983,29.983,0,0,0-8.142,7.995,17.219,17.219,0,0,0-1.617,3.124h0s-.049.129-.123.344-.1.283-.148.424c0,.031-.043.184-.092.443-.437,1.759-.861,5.129,1.113,7.884.1.16.228.314.351.467l.043.055h0c1.334,1.58,3.628,2.644,7.5,2.337M87.3,139.422c.873-2.048,2.737-4.575,6.15-7.263a41.745,41.745,0,0,1,4.778-3.2h0a71.505,71.505,0,0,1,9.12-4.4h0q1.285-.517,2.933-1.119c-5.848,12.176-13.818,24.783-21.13,22.932a2.324,2.324,0,0,1-.615-.191,3.223,3.223,0,0,1-1.347-1.23,4.735,4.735,0,0,1-.615-2.423,7.8,7.8,0,0,1,.689-3.075" transform="translate(-27.834 -32.177)"/>
    <line id="Line_1" data-name="Line 1" transform="translate(35.912 97.768)" fill="none" stroke="#a8aaac" stroke-linecap="round" stroke-linejoin="round" stroke-width="0"/>
    <path id="Path_45" data-name="Path 45" d="M104.862,247.347c2.7-.966,5.805-1.79,8.911-2.552,4.7-1.162,9.514-2.06,13.529-2.718h0c2.128-.381,3.93-.732,5.381-1.058a24.825,24.825,0,0,0,3.352-.922h0a4.151,4.151,0,0,0,.978-.529h0a1.962,1.962,0,0,0,.553-.615h0a1.469,1.469,0,0,0,.178-.707,1.489,1.489,0,0,0-.1-.523h0a1.612,1.612,0,0,0-.387-.553,1.777,1.777,0,0,0-.375-.264h0a3.3,3.3,0,0,0-.652-.252h0a7.427,7.427,0,0,0-1.888-.184h-.535c-1.334.037-2.866.2-4.151.363s-2.318.326-2.607.375h0q-1.15.184-2.38.406c-3.555.615-7.546,1.421-11.537,2.4a92.9,92.9,0,0,0-11.58,3.573q-1.79.713-3.444,1.507c-.713.375-4.674,2.546-4.3,4.723.369,2.4,4.243-.363,11.07-2.392" transform="translate(-36.117 -91.046)"/>
    <line id="Line_2" data-name="Line 2" transform="translate(169.773 123.461)" fill="none" stroke="#fff" stroke-linecap="round" stroke-linejoin="round" stroke-width="0"/>
    <path id="Path_46" data-name="Path 46" d="M263.966,166.23l-.873,3.321-1.4,4.92a3.592,3.592,0,0,0-.191,1.23c.055,1.058.879,1.544,1.943,1.482a7.257,7.257,0,0,0,5.824-4.834l.3-1.082,1.23-4.489,10.258-36.136a2.89,2.89,0,0,0,.111-1.156c-.068-1.144-.8-1.63-1.949-1.568a7.191,7.191,0,0,0-5.738,4.84Z" transform="translate(-100.693 -49.25)"/>
    <line id="Line_3" data-name="Line 3" x2="0.006" transform="translate(91.186 138.725)" fill="none" stroke="#fff" stroke-linecap="round" stroke-linejoin="round" stroke-width="0"/>
    <path id="Path_47" data-name="Path 47" d="M141.6,196.326l.369-1.052,1.562-4.379,13.462-37.39a2.909,2.909,0,0,0,.2-1.144c.031-1.144-.615-1.691-1.734-1.722a6.92,6.92,0,0,0-5.879,4.342l-12.552,34.764-1.107,3.241-1.747,4.809a3.721,3.721,0,0,0-.289,1.23,1.58,1.58,0,0,0,1.734,1.636,7.044,7.044,0,0,0,5.971-4.3" transform="translate(-51.56 -58)"/>
    <path id="Path_48" data-name="Path 48" d="M254.391,173.2a39.794,39.794,0,0,0,7.152-8.087,36.652,36.652,0,0,0,3.69-6.414h0c.363-.732.72-1.476,1.07-2.257l.08-.172.43-.99c.135-.32.271-.615.4-.966.037-.092.08-.178.111-.264h0A46.3,46.3,0,0,0,270.4,141.07a32.183,32.183,0,0,0,.037-4.065v-.148c-.031-.541-.08-1.07-.141-1.593-1.451-12.472-11.967-20.147-25.085-19.452-9.311.486-18.621,4.655-23.676,11.07A16.985,16.985,0,0,0,217.7,138.4c.326,6.15,4.92,9.108,9.575,8.862,3.462-.184,4.618-1.2,4.575-2.066-.123-2.245-6.322.16-6.709-7.189s4.108-12.859,9.532-16.118a22.065,22.065,0,0,1,9.84-3.2c10.209-.535,17.041,7.343,17.57,17.373l-.16.16a25.071,25.071,0,0,1-.055,3.721,59.984,59.984,0,0,1-4.735,19.15h0a33.764,33.764,0,0,1-1.593,3.222c-.061.117-.129.234-.2.351l-.289.51c-.092.154-.172.307-.264.455a2.47,2.47,0,0,1-.123.215c-.178.289-.351.566-.529.843l-.258.4-.1.154c-4.465,6.82-13.37,16.309-26.616,11.924l-.092.037c-.861-.32-1.679-.664-2.46-1.033h0c-6.1-2.847-10.135-6.894-14.962-9.575l-.43-1.23-.381-.978-.363-.5h0c-.2-.375-.412-.744-.615-1.113a26.068,26.068,0,0,0-2.97-4.151h0a99.624,99.624,0,0,0-7.939-8.173c-4.243-4.083-5.32-5.922-5.6-8.554-.836-7.995,6.857-10.842,9.667-11.131,4.213-.443,8.45,1.845,8.868,5.818a5.274,5.274,0,0,1-4.828,5.652c-3.247.344-4.784-2.46-5.289-3.887-.381-1.113-.9-1.765-1.777-1.679-1.052.111-2.036,1.728-1.845,3.745.338,3.247,3.647,6.008,9.71,5.375,6.408-.67,10.836-5.037,10.239-10.744-.541-5.184-6.15-8.77-14.415-7.909-8.776.922-16.752,7.878-15.651,18.418.726,6.937,7.927,11.814,13.173,18.222a30.553,30.553,0,0,0-6.906.787,30.011,30.011,0,0,0-9.452,3.038h0a16.714,16.714,0,0,0-5.867,5.074c-.129.185-.271.357-.387.547h0a13.96,13.96,0,0,0-2.46,9.255c.707,6.765,8.062,10.873,15.614,10.086,9.913-1.039,21.075-7.939,21.321-18.837,1.193.806,2.423,1.7,3.69,2.712,15.042,11.924,29.789,5.75,39.635-3.278m-63.447,15.676c-5.443.572-9.391-2.386-9.87-6.955a11.8,11.8,0,0,1,.375-4.557,12.154,12.154,0,0,1,.781-1.753c.756-1.23,7.1-10.947,20.725-6.027a18.449,18.449,0,0,1,1.691,5.965c.965,9.225-8.782,12.816-13.7,13.326" transform="translate(-67.029 -44.575)"/>
    <path id="Path_49" data-name="Path 49" d="M55.96,306.168l15.676-3.179V284.3L55.96,287.479l5.855,8.155Z" transform="translate(-21.555 -109.464)"/>
    <path id="Path_50" data-name="Path 50" d="M352.506,245.719,336.83,248.9V230.216l15.676-3.186-5.861,10.535Z" transform="translate(-129.697 -87.413)"/>
    <path id="Path_51" data-name="Path 51" d="M237.626,248.619,85.26,279.355v-18.7l152.366-30.73Z" transform="translate(-32.836 -88.53)"/>
    <path id="Path_52" data-name="Path 52" d="M111.966,281.653v1.285a.227.227,0,0,1-.2.24l-1.021.215v8.21a.221.221,0,0,1-.2.24l-1.285.271a.136.136,0,0,1-.2-.129v-8.241l-1.009.209c-.135,0-.2,0-.2-.16v-1.285a.227.227,0,0,1,.2-.246l3.69-.775q.2-.037.2.166" transform="translate(-41.529 -108.378)" fill="#fff"/>
    <path id="Path_53" data-name="Path 53" d="M124.145,288.9a.191.191,0,0,1-.172.24l-1.316.271c-.123.031-.2,0-.215-.154l-.141-1.55-.892.185-.117,1.587a.264.264,0,0,1-.215.246l-1.316.271c-.135.031-.191,0-.172-.166l1.082-9.92a.277.277,0,0,1,.234-.252l1.9-.394a.166.166,0,0,1,.234.154Zm-1.937-2.774-.271-3.85h-.117l-.271,3.967Z" transform="translate(-46.052 -107.518)" fill="#fff"/>
    <path id="Path_54" data-name="Path 54" d="M136.718,276.28a.117.117,0,0,1,0,.135l-1.654,6.316v3.727a.221.221,0,0,1-.2.24l-1.3.271c-.135,0-.2,0-.2-.16v-3.69l-1.66-5.633a.166.166,0,0,1,0-.141.2.2,0,0,1,.129-.092l1.531-.314a.166.166,0,0,1,.234.154l.578,3.518h.055l.578-3.757a.271.271,0,0,1,.228-.252l1.531-.314a.123.123,0,0,1,.129.037" transform="translate(-50.711 -106.376)" fill="#fff"/>
    <path id="Path_55" data-name="Path 55" d="M149.7,282.551v1.285a.228.228,0,0,1-.2.246l-1.943.406h-.043l-1.285.264c-.135.031-.2,0-.2-.16V274.9a.228.228,0,0,1,.2-.24l1.285-.271c.129,0,.2.031.2.16v8.21l1.79-.375c.135,0,.2,0,.2.16" transform="translate(-56.23 -105.648)" fill="#fff"/>
    <path id="Path_56" data-name="Path 56" d="M161.938,279.581a1.925,1.925,0,0,1-.148.738,2.461,2.461,0,0,1-.387.658,2.553,2.553,0,0,1-.578.51,2.023,2.023,0,0,1-.707.289l-.547.117a1.709,1.709,0,0,1-.707,0,1.433,1.433,0,0,1-.578-.271,1.329,1.329,0,0,1-.387-.492,1.538,1.538,0,0,1-.148-.676v-6.672a1.918,1.918,0,0,1,.148-.732,2.214,2.214,0,0,1,.387-.658,2.411,2.411,0,0,1,.578-.51,2.159,2.159,0,0,1,.707-.3l.547-.111a1.611,1.611,0,0,1,.707,0,1.328,1.328,0,0,1,.966.763,1.519,1.519,0,0,1,.148.676Zm-1.691-6.242a.271.271,0,0,0-.1-.228.307.307,0,0,0-.246-.049h-.117a.424.424,0,0,0-.246.154.406.406,0,0,0-.1.264v6.525a.252.252,0,0,0,.1.221.283.283,0,0,0,.246.055h.117a.479.479,0,0,0,.246-.154.406.406,0,0,0,.1-.264Z" transform="translate(-60.746 -104.511)" fill="#fff"/>
    <path id="Path_57" data-name="Path 57" d="M175.608,278.316a.166.166,0,0,1-.141.234l-1.316.271a.258.258,0,0,1-.166,0,.3.3,0,0,1-.111-.123l-1.052-3.321v3.6a.215.215,0,0,1-.191.185l-1.285.264c-.129,0-.2,0-.2-.16V269.54a.228.228,0,0,1,.2-.246l2.171-.449a1.586,1.586,0,0,1,.7,0,1.4,1.4,0,0,1,.578.271,1.378,1.378,0,0,1,.394.5,1.605,1.605,0,0,1,.141.676v2.355a2.036,2.036,0,0,1-.277,1.015,2.46,2.46,0,0,1-.72.806Zm-2.786-4.877.461-.092a.455.455,0,0,0,.246-.154.412.412,0,0,0,.1-.264v-2.208a.277.277,0,0,0-.1-.228.3.3,0,0,0-.246-.049l-.461.1Z" transform="translate(-65.905 -103.498)" fill="#fff"/>
    <path id="Path_58" data-name="Path 58" d="M198.057,263.589v9.692a.228.228,0,0,1-.2.246l-1.384.289c-.135,0-.2-.031-.2-.16v-4.563L195.314,273a.094.094,0,0,1-.068.086c-.025.006-.055,0-.074-.055l-.953-3.53v4.563a.227.227,0,0,1-.2.246l-1.384.283c-.135.031-.2,0-.2-.16v-9.68a.228.228,0,0,1,.2-.24l1.23-.258a.172.172,0,0,1,.154.037.276.276,0,0,1,.092.117l1.144,4.92,1.138-5.4a.449.449,0,0,1,.08-.154.264.264,0,0,1,.154-.1l1.23-.258q.2-.037.2.166" transform="translate(-74.099 -101.421)" fill="#fff"/>
    <path id="Path_59" data-name="Path 59" d="M212.35,270.6a.185.185,0,0,1-.172.234l-1.31.277c-.129,0-.2-.031-.221-.16l-.111-1.531-.9.184-.117,1.581a.258.258,0,0,1-.215.246l-1.31.277c-.135,0-.2-.031-.178-.166L208.9,261.6a.277.277,0,0,1,.234-.246l1.906-.4c.135,0,.209,0,.228.154Zm-1.931-2.774-.277-3.856h-.111l-.277,3.967Z" transform="translate(-80.023 -100.474)" fill="#fff"/>
    <path id="Path_60" data-name="Path 60" d="M223.8,258.426a1.618,1.618,0,0,1,.707,0,1.52,1.52,0,0,1,.578.271,1.3,1.3,0,0,1,.387.5,1.519,1.519,0,0,1,.148.676v6.457a1.925,1.925,0,0,1-.148.738,2.294,2.294,0,0,1-.387.658,2.551,2.551,0,0,1-.578.51,2.023,2.023,0,0,1-.707.289l-2.165.449c-.135,0-.2,0-.2-.16v-9.7a.228.228,0,0,1,.2-.24Zm.129,1.845a.271.271,0,0,0-.1-.228.3.3,0,0,0-.246-.049l-.461.1V267.1l.461-.1a.412.412,0,0,0,.246-.148.418.418,0,0,0,.1-.271Z" transform="translate(-85.265 -99.486)" fill="#fff"/>
    <path id="Path_61" data-name="Path 61" d="M238.346,263.913V265.2a.228.228,0,0,1-.2.246l-3.13.652c-.135,0-.2-.031-.2-.16v-9.7a.228.228,0,0,1,.2-.246l3.13-.652c.135,0,.2,0,.2.16v1.285a.228.228,0,0,1-.2.246l-1.648.338v2.066l1.433-.3c.135,0,.2,0,.2.16v1.285a.228.228,0,0,1-.2.246l-1.433.3v2.958l1.648-.344c.135,0,.2.031.2.16" transform="translate(-90.416 -98.314)" fill="#fff"/>
    <path id="Path_62" data-name="Path 62" d="M258.7,251.2v1.285a.228.228,0,0,1-.2.246l-1.027.215v8.21a.221.221,0,0,1-.2.24l-1.279.271a.2.2,0,0,1-.141-.031.147.147,0,0,1-.061-.129V253.3l-1.009.2c-.141.031-.2,0-.2-.16v-1.279a.228.228,0,0,1,.2-.246l3.69-.775c.135,0,.2,0,.2.16" transform="translate(-98.024 -96.658)" fill="#fff"/>
    <path id="Path_63" data-name="Path 63" d="M271.146,257.117V258.4a.221.221,0,0,1-.2.24l-3.13.64c-.135.031-.2,0-.2-.16v-9.68a.228.228,0,0,1,.2-.246l3.13-.646c.135,0,.2,0,.2.16v1.279a.228.228,0,0,1-.2.246l-1.642.344v2.079l1.427-.3c.135,0,.2.031.2.16V253.8a.228.228,0,0,1-.2.246l-1.427.3V257.3l1.642-.338c.135-.031.2,0,.2.16" transform="translate(-103.045 -95.699)" fill="#fff"/>
    <path id="Path_64" data-name="Path 64" d="M283.886,255.81l-1.341.277c-.135,0-.209,0-.228-.154l-.547-2.743-.553,2.97a.271.271,0,0,1-.228.252l-1.347.277a.148.148,0,0,1-.135-.031.136.136,0,0,1,0-.141l1.181-5.1-1.181-4.588a.148.148,0,0,1,0-.141.215.215,0,0,1,.135-.1l1.347-.277a.166.166,0,0,1,.228.154l.553,2.743.547-2.97a.277.277,0,0,1,.228-.252l1.341-.277a.141.141,0,0,1,.141.037.129.129,0,0,1,0,.135l-1.15,5.08,1.181,4.612a.178.178,0,0,1-.16.24" transform="translate(-107.619 -94.602)" fill="#fff"/>
    <path id="Path_65" data-name="Path 65" d="M297.16,253.02a.185.185,0,0,1-.172.234l-1.316.277a.166.166,0,0,1-.215-.16l-.117-1.531-.9.184-.111,1.581a.258.258,0,0,1-.221.246l-1.31.277c-.135,0-.191-.031-.172-.166l1.082-9.926a.271.271,0,0,1,.234-.246l1.9-.4c.135,0,.215,0,.234.154Zm-1.937-2.774-.271-3.856h-.117l-.277,3.967Z" transform="translate(-112.677 -93.713)" fill="#fff"/>
    <path id="Path_66" data-name="Path 66" d="M308.908,240.72a1.4,1.4,0,0,1,.578.271,1.378,1.378,0,0,1,.394.5,1.58,1.58,0,0,1,.141.676v.547a.326.326,0,0,1-.184.3l-1.316.615c-.123.068-.185,0-.185-.1v-.941a.277.277,0,0,0-.1-.221.283.283,0,0,0-.246-.049h-.111a.394.394,0,0,0-.246.154.4.4,0,0,0-.1.264v1.31a1.319,1.319,0,0,0,.055.264.578.578,0,0,0,.16.2l1.894,1.021a.713.713,0,0,1,.3.351,2.218,2.218,0,0,1,.092.449v2.46a2.041,2.041,0,0,1-.141.738,2.46,2.46,0,0,1-.394.658,2.571,2.571,0,0,1-.578.51,2.042,2.042,0,0,1-.7.289l-.553.111a1.618,1.618,0,0,1-.707,0,1.39,1.39,0,0,1-.966-.769,1.5,1.5,0,0,1-.141-.676V248.26a.326.326,0,0,1,.184-.3l1.316-.615c.123-.068.184-.031.184.1v1.777a.277.277,0,0,0,.1.221.283.283,0,0,0,.246.049h.111a.393.393,0,0,0,.246-.154.4.4,0,0,0,.1-.264v-1.906a1.558,1.558,0,0,0-.062-.32.424.424,0,0,0-.172-.221l-1.845-1.039a1.058,1.058,0,0,1-.307-.344,1.131,1.131,0,0,1-.092-.51V243a1.918,1.918,0,0,1,.141-.738,2.459,2.459,0,0,1,.394-.658,2.4,2.4,0,0,1,.572-.51,2.073,2.073,0,0,1,.707-.289l.553-.111a1.586,1.586,0,0,1,.7,0" transform="translate(-117.765 -92.66)" fill="#fff"/>
  </g>
</svg>
