<?xml version="1.0" encoding="utf-8"?>
<!-- Generator: Adobe Illustrator 16.0.0, SVG Export Plug-In . SVG Version: 6.00 Build 0)  -->
<!DOCTYPE svg PUBLIC "-//W3C//DTD SVG 1.1//EN" "http://www.w3.org/Graphics/SVG/1.1/DTD/svg11.dtd">
<svg version="1.1" id="Layer_1" xmlns="http://www.w3.org/2000/svg" xmlns:xlink="http://www.w3.org/1999/xlink" x="0px" y="0px"
	 width="200px" height="200px" viewBox="0 0 200 200" enable-background="new 0 0 200 200" xml:space="preserve">
<circle fill="#FFFFFF" cx="98.816" cy="100.771" r="72.836"/>
<g>
	<path fill="#FFFFFF" d="M166.654,99.381c0,37.229-30.182,67.409-67.409,67.409c-37.227,0-67.406-30.183-67.406-67.409
		c0-37.232,30.179-67.41,67.406-67.41C136.475,31.971,166.654,62.148,166.654,99.381z"/>
	<g>
		<path fill="#DEDDDE" d="M100.208,6.557c-51.785,0-93.918,42.132-93.918,93.921c0,51.779,42.134,93.906,93.918,93.906
			c51.794,0,93.916-42.127,93.916-93.906C194.124,48.689,152.002,6.557,100.208,6.557z M100.208,158.018
			c-31.734,0-57.553-25.812-57.553-57.539c0-31.734,25.819-57.555,57.553-57.555c31.731,0,57.544,25.821,57.544,57.555
			C157.752,132.206,131.939,158.018,100.208,158.018z"/>
	</g>
	<g>
		<path fill="#FFFFFF" d="M99.264,5.616c-51.784,0-93.918,42.131-93.918,93.916c0,51.778,42.134,93.916,93.918,93.916
			c51.787,0,93.917-42.138,93.917-93.916C193.182,47.747,151.051,5.616,99.264,5.616z M99.264,157.072
			c-31.733,0-57.548-25.812-57.548-57.541c0-31.733,25.814-57.545,57.548-57.545c31.73,0,57.552,25.812,57.552,57.545
			C156.816,131.26,130.994,157.072,99.264,157.072z"/>
	</g>
	<g>
		<path fill="#005596" d="M99.264,7.973c-50.483,0-91.557,41.068-91.557,91.559s41.074,91.56,91.557,91.56
			c50.488,0,91.562-41.068,91.562-91.56S149.752,7.973,99.264,7.973z M99.264,159.43c-33.03,0-59.904-26.869-59.904-59.897
			c0-33.032,26.874-59.901,59.904-59.901c33.03,0,59.909,26.869,59.909,59.901C159.173,132.561,132.294,159.43,99.264,159.43z"/>
	</g>
	<path fill="#DEDDDE" d="M128.305,125.721c-0.814,0.362-3.865,1.34-8.549-1.49c-1.48-0.905-3.193-2.375-4.714-4.019
		c-1.61-1.752-3.142-3.635-4.562-5.608c-1.455-2.024-3.184-4.513-5.156-7.401l0.029,0.04c-0.062-0.092-0.291-0.424-1.377-1.995
		l-0.479-0.699c0.22-0.116,0.438-0.241,0.652-0.362c2.685-1.65,4.777-3.756,6.248-6.253c1.48-2.518,2.235-5.202,2.235-7.991
		c0-2.603-0.71-5.182-2.104-7.664c-1.42-2.527-3.62-4.607-6.531-6.173c-1.508-0.871-3.486-1.556-6.04-2.059
		c-2.41-0.483-4.592-0.726-6.493-0.726c-1.46,0-3.591,0.071-6.506,0.202c-2.878,0.212-5.086,0.317-6.577,0.317
		c-1.981,0-4.997-0.171-8.978-0.509l-1.503-0.131l-0.869-0.07v0.871v1.375v0.967v0.766v0.508l0.463,0.217l0.748,0.342
		c1.191,0.554,2,1.208,2.347,1.873c0.441,0.846,0.702,1.923,0.778,3.188c0.189,3.142,0.33,6.445,0.426,9.813
		c0.093,3.384,0.144,6.728,0.144,9.95c0,8.505-0.051,15-0.144,19.311c-0.025,0.776-0.292,1.4-0.836,1.935
		c-0.718,0.726-1.702,1.381-2.931,1.954l-0.748,0.353l-0.463,0.212v0.514v0.767v0.896v1.381v0.865l0.874-0.069l1.505-0.132
		c3.432-0.291,6.574-0.442,9.341-0.442c1.238,0,2.548,0.03,3.879,0.101c1.393,0.062,3.185,0.182,5.335,0.342l1.493,0.123l0.863,0.06
		v-0.866v-1.359v-0.896v-0.815v-0.545l-0.503-0.211l-0.829-0.322c-1.389-0.553-1.963-1.066-2.205-1.399
		c-0.169-0.231-0.579-0.978-0.73-2.93c-0.292-4.573-0.451-9.56-0.481-14.815c0.69-0.061,1.219-0.091,1.573-0.091h1.883
		c0.901,0.938,1.765,1.935,2.568,2.991c1.047,1.38,2.366,3.162,3.915,5.287c1.958,2.738,3.679,5.024,5.106,6.799
		c1.488,1.854,3.225,3.615,5.138,5.246c1.995,1.691,4.279,3.062,6.789,4.068c2.559,1.037,5.417,1.562,8.494,1.562
		c0.801,0,1.662-0.052,2.572-0.151c6.152-0.693,7.584-4.189,7.645-4.341l0.005-0.028l0.011-0.031
		c0.086-0.291,0.479-1.782-0.394-2.547C130.118,125.277,129.328,125.268,128.305,125.721z M85.625,83.529L85.625,83.529
		c0.05-0.433,0.076-1.027,0.076-1.833c0-0.261,0.013-0.513,0.015-0.735c0.844-0.07,1.486-0.11,1.921-0.11
		c1.667,0,3.127,0.09,4.333,0.272c1.002,0.141,1.923,0.463,2.742,0.931c1.04,0.705,1.916,1.742,2.614,3.097
		c0.725,1.404,1.092,2.85,1.092,4.29c0,3.751-0.705,6.379-2.09,7.81c-1.309,1.354-4.063,2.05-7.963,2.02h-0.11l-0.061-0.01
		l-0.052,0.01l-0.111,0.02c0,0-0.31,0.025-1.657-0.02c-0.005,0-0.083-0.01-0.083-0.01h-0.035l-0.035,0.01h-0.073
		c-0.277,0.02-0.544,0.03-0.798,0.04v-5.096C85.348,89.38,85.441,85.78,85.625,83.529z"/>
	<path fill="#DEDDDE" d="M135.732,101.445c-0.096-4.93-1.174-9.628-3.396-14.804l0,0l-0.306-0.715c-0.564-1.339-1.274-3-1.939-4.451
		c-0.589-1.354-1.152-2.83-1.688-4.391c-0.508-1.531-0.875-3.051-1.021-5.478c-0.105-1.929,0.075-3.777,0.569-5.65
		c0.121-0.468-0.086-0.946-0.494-1.168c-0.413-0.227-0.911-0.131-1.218,0.227c-3.203,3.721-4.704,7.82-4.704,12.891
		c0,1.536,0.343,3.097,0.687,4.607c0.135,0.604,0.262,1.138,0.353,1.657l0.01,0.035l0.011,0.03c0.187,0.7,0.338,1.51,0.442,2.306
		c-0.86-2.518-2.347-4.91-4.44-7.084c-0.322-0.343-0.847-0.403-1.238-0.146c-0.394,0.252-0.563,0.77-0.394,1.229
		c0.533,1.45,0.815,2.936,0.815,4.416c0,1.355-0.061,2.392-0.182,3.172c-0.105,0.68-0.131,0.791-0.246,1.334h0.01
		c-0.035,0.111-0.055,0.206-0.07,0.282c-0.057,0.241-0.121,0.584-0.166,0.735l-0.011,0.015c-0.005,0.025-0.011,0.05-0.011,0.05
		c-0.01,0.086-0.061,0.237-0.084,0.332c-0.041,0.136-0.08,0.262-0.117,0.388c-0.061,0.211-0.18,0.604-0.256,0.841
		c-0.188,0.584-0.379,1.093-0.555,1.582c-0.207,0.553-0.388,1.052-0.589,1.651c-0.272,0.78-0.54,1.868-0.746,3.046
		c-0.251,1.369-0.362,2.603-0.362,4.25c0,5.394,1.889,10.972,4.806,14.204c1.641,1.713,3.694,2.641,5.81,2.641
		c2.116,0,4.17-0.928,5.793-2.629c2.908-3.203,4.822-8.771,4.902-14.201c0.01-0.121,0.01-0.246,0.021-0.366
		C135.732,101.989,135.743,101.712,135.732,101.445z"/>
	<path fill="#FFFFFF" d="M127.63,124.945c-0.825,0.361-3.877,1.33-8.56-1.49c-1.471-0.906-3.192-2.377-4.703-4.018
		c-1.611-1.754-3.151-3.637-4.562-5.601c-1.459-2.035-3.191-4.522-5.16-7.413l0.03,0.051c-0.062-0.102-0.293-0.433-1.373-1.998
		l-0.485-0.705c0.22-0.111,0.439-0.236,0.656-0.362c2.682-1.652,4.782-3.756,6.252-6.254c1.48-2.508,2.227-5.197,2.227-7.991
		c0-2.604-0.704-5.182-2.105-7.664c-1.419-2.533-3.613-4.607-6.525-6.168c-1.504-0.881-3.48-1.556-6.04-2.065
		c-2.407-0.479-4.592-0.725-6.493-0.725c-1.46,0-3.588,0.07-6.501,0.201c-2.88,0.211-5.088,0.317-6.586,0.317
		c-1.977,0-4.995-0.166-8.97-0.508l-1.503-0.131l-0.872-0.07v0.876v1.37v0.967v0.765v0.508l0.464,0.216l0.743,0.353
		c1.19,0.548,2.006,1.198,2.354,1.863c0.44,0.851,0.7,1.923,0.778,3.192c0.189,3.142,0.33,6.445,0.426,9.809
		c0.093,3.384,0.141,6.728,0.141,9.939c0,8.516-0.047,15.021-0.141,19.332c-0.03,0.766-0.295,1.389-0.833,1.923
		c-0.72,0.726-1.707,1.39-2.936,1.954l-0.748,0.354l-0.461,0.211v0.514v0.766v0.896v1.369v0.875l0.872-0.069l1.503-0.131
		c3.439-0.291,6.582-0.443,9.343-0.443c1.239,0,2.545,0.04,3.879,0.103c1.393,0.061,3.188,0.182,5.338,0.342l1.493,0.121
		l0.863,0.061v-0.865v-1.359v-0.896v-0.814v-0.555l-0.506-0.201l-0.823-0.322c-1.393-0.555-1.972-1.066-2.21-1.391
		c-0.169-0.23-0.577-0.986-0.73-2.939c-0.287-4.562-0.454-9.557-0.484-14.814c0.693-0.061,1.221-0.09,1.579-0.09h1.885
		c0.899,0.938,1.76,1.934,2.566,2.99c1.047,1.38,2.367,3.162,3.913,5.287c1.963,2.738,3.678,5.025,5.105,6.799
		c1.492,1.852,3.22,3.614,5.142,5.246c1.997,1.691,4.277,3.071,6.785,4.068c2.562,1.048,5.423,1.562,8.494,1.562
		c0.795,0,1.662-0.051,2.574-0.151c6.146-0.693,7.582-4.188,7.639-4.34l0.01-0.029l0.016-0.03c0.086-0.293,0.469-1.783-0.397-2.548
		C129.443,124.503,128.646,124.492,127.63,124.945z M84.945,82.759L84.945,82.759c0.055-0.438,0.078-1.032,0.078-1.838
		c0-0.262,0.007-0.504,0.018-0.735c0.838-0.071,1.482-0.111,1.916-0.111c1.667,0,3.125,0.096,4.338,0.272
		c0.997,0.141,1.918,0.463,2.741,0.937c1.032,0.695,1.917,1.742,2.611,3.092c0.723,1.41,1.09,2.851,1.09,4.29
		c0,3.751-0.703,6.385-2.087,7.815c-1.31,1.349-4.064,2.044-7.969,2.014h-0.108h-0.058L87.458,98.5l-0.108,0.015
		c0,0-0.31,0.025-1.656-0.021c-0.008,0-0.081,0-0.081,0l-0.036-0.005l-0.035,0.005h-0.078c-0.275,0.021-0.539,0.03-0.794,0.041
		v-5.091C84.67,88.605,84.764,85.009,84.945,82.759z"/>
	<path fill="#FFFFFF" d="M135.072,100.665c-0.096-4.925-1.178-9.627-3.393-14.794v-0.005l-0.309-0.715
		c-0.568-1.34-1.273-3.001-1.939-4.452c-0.588-1.35-1.158-2.835-1.681-4.391c-0.504-1.531-0.881-3.046-1.022-5.468
		c-0.11-1.934,0.076-3.787,0.56-5.66c0.121-0.463-0.07-0.947-0.483-1.168c-0.412-0.227-0.916-0.131-1.219,0.227
		c-3.208,3.727-4.708,7.82-4.708,12.896c0,1.531,0.349,3.092,0.688,4.604c0.138,0.604,0.248,1.138,0.35,1.661l0.005,0.03l0.011,0.03
		c0.189,0.7,0.342,1.511,0.452,2.307c-0.86-2.508-2.356-4.905-4.44-7.09c-0.327-0.337-0.846-0.398-1.238-0.142
		c-0.403,0.252-0.562,0.776-0.403,1.229c0.544,1.45,0.815,2.936,0.815,4.416c0,1.354-0.055,2.392-0.176,3.177
		c-0.105,0.675-0.127,0.785-0.246,1.329l0.01,0.01c-0.03,0.101-0.057,0.197-0.071,0.272c-0.05,0.242-0.12,0.584-0.161,0.735
		l-0.01,0.021c0,0.021-0.01,0.05-0.01,0.05c-0.016,0.081-0.061,0.231-0.092,0.328c-0.039,0.136-0.075,0.262-0.109,0.387
		c-0.066,0.212-0.184,0.604-0.264,0.841c-0.19,0.589-0.371,1.092-0.553,1.576c-0.211,0.559-0.394,1.062-0.584,1.656
		c-0.271,0.781-0.543,1.868-0.746,3.046c-0.256,1.37-0.361,2.609-0.361,4.25c0,5.402,1.883,10.981,4.804,14.203
		c1.642,1.713,3.696,2.64,5.808,2.64c2.113,0,4.174-0.927,5.795-2.628c2.899-3.202,4.822-8.771,4.904-14.194
		c0-0.126,0.01-0.253,0.01-0.373C135.072,101.213,135.088,100.941,135.072,100.665z"/>
	<path fill="#005596" d="M127.953,125.682c-1.898,0.836-5.258,0.896-9.301-1.541c-1.516-0.938-3.278-2.428-4.875-4.158
		c-1.637-1.772-3.196-3.688-4.627-5.682c-1.461-2.033-3.202-4.531-5.166-7.423c-0.002,0-1.405-2.028-2.354-3.407
		c0.472-0.218,0.949-0.465,1.433-0.757c2.568-1.575,4.567-3.585,5.974-5.962c1.403-2.392,2.114-4.935,2.114-7.588
		c0-2.462-0.67-4.91-2-7.267c-1.344-2.397-3.437-4.371-6.211-5.861c-1.438-0.836-3.352-1.49-5.811-1.983
		c-2.364-0.469-4.494-0.706-6.342-0.706c-1.448,0-3.561,0.061-6.466,0.197c-2.885,0.211-5.101,0.317-6.622,0.317
		c-1.994,0-5.041-0.171-9.034-0.514l-1.505-0.121v1.37v0.967v0.765l0.743,0.342c1.372,0.645,2.286,1.395,2.727,2.23
		c0.489,0.947,0.781,2.13,0.864,3.51c0.191,3.137,0.333,6.446,0.426,9.834c0.095,3.399,0.141,6.752,0.141,9.964
		c0,8.535-0.045,15.052-0.141,19.342c-0.038,0.987-0.385,1.793-1.068,2.487c-0.786,0.785-1.848,1.49-3.16,2.105l-0.748,0.352v0.766
		v0.896v1.369l1.506-0.12c3.454-0.304,6.622-0.443,9.409-0.443c1.253,0,2.576,0.03,3.92,0.091c1.39,0.061,3.192,0.191,5.36,0.354
		l1.49,0.109v-1.358v-0.896v-0.815l-0.823-0.333c-1.264-0.492-2.122-1.057-2.561-1.672c-0.319-0.434-0.728-1.358-0.881-3.344
		c-0.309-4.822-0.473-10.08-0.493-15.619c1.095-0.092,1.888-0.142,2.387-0.142h2.223c0.995,1.007,1.959,2.114,2.863,3.304
		c1.055,1.379,2.377,3.162,3.928,5.297c1.954,2.729,3.668,5.016,5.081,6.769c1.463,1.812,3.155,3.544,5.04,5.136
		c1.928,1.643,4.133,2.971,6.561,3.947c2.468,0.997,5.227,1.491,8.197,1.491c0.66,0,1.48-0.04,2.482-0.15
		c5.735-0.635,6.984-3.828,6.984-3.828S130.421,124.583,127.953,125.682z M83.865,93.444c0-4.859,0.098-8.479,0.282-10.75
		l-0.005,0.06c0.056-0.402,0.081-0.997,0.081-1.833c0-0.655,0.025-1.128,0.068-1.471c1.188-0.116,2.087-0.171,2.666-0.171
		c1.707,0,3.208,0.09,4.456,0.271c1.111,0.162,2.133,0.514,3.049,1.048c1.155,0.775,2.132,1.923,2.9,3.409
		c0.783,1.526,1.181,3.092,1.181,4.658c0,3.968-0.778,6.788-2.316,8.369c-1.488,1.536-4.363,2.297-8.55,2.256h-0.11l-0.108,0.02
		c-0.053,0.005-0.391,0.036-1.798-0.02h-0.07l-0.075,0.01c-0.615,0.03-1.164,0.06-1.649,0.07v-5.926H83.865z"/>
	<path fill="#C41230" d="M134.298,100.689c-0.097-4.823-1.157-9.425-3.329-14.491l-0.307-0.725
		c-0.569-1.334-1.273-3.001-1.924-4.431c-0.614-1.39-1.188-2.89-1.723-4.461c-0.539-1.601-0.916-3.183-1.066-5.7
		c-0.111-2.014,0.08-3.948,0.594-5.912c0.025-0.09-0.02-0.202-0.111-0.247c-0.084-0.05-0.195-0.035-0.261,0.045
		c-3.075,3.571-4.512,7.503-4.512,12.368c0,1.44,0.342,2.951,0.664,4.426c0.131,0.584,0.257,1.133,0.356,1.688
		c0.379,1.379,0.629,3.192,0.629,4.521c0,2.135-0.32,3.958-1.002,5.599c0.106-0.745,0.157-1.566,0.157-2.513
		c0-4.134-1.758-8.152-5.075-11.612c-0.07-0.075-0.183-0.09-0.272-0.035c-0.085,0.061-0.12,0.171-0.085,0.267
		c0.578,1.541,0.861,3.127,0.861,4.703c0,1.4-0.057,2.482-0.172,3.303c-0.115,0.69-0.142,0.821-0.271,1.385l-0.061,0.267
		c-0.047,0.261-0.121,0.609-0.173,0.795c0,0.005,0,0.015-0.01,0.025c-0.021,0.091-0.062,0.237-0.101,0.393
		c-0.041,0.116-0.076,0.231-0.102,0.342c-0.08,0.252-0.201,0.655-0.277,0.896c-0.195,0.604-0.388,1.118-0.567,1.611
		c-0.187,0.503-0.377,1.017-0.574,1.621c-0.263,0.75-0.521,1.793-0.715,2.931c-0.252,1.329-0.353,2.522-0.353,4.109
		c0,5.201,1.809,10.568,4.598,13.649c1.479,1.541,3.333,2.397,5.236,2.397s3.762-0.856,5.241-2.397
		c2.771-3.052,4.603-8.407,4.683-13.649c0-0.133,0.011-0.272,0.011-0.414C134.298,101.198,134.309,100.941,134.298,100.689z"/>
	<g>
		<path fill="#FFFFFF" d="M10.977,99.451c0-48.758,39.528-88.287,88.287-88.292l0,0c48.759,0.005,88.289,39.534,88.289,88.292l0,0
			c0,48.758-39.529,88.287-88.289,88.287l0,0C50.505,187.738,10.977,148.209,10.977,99.451L10.977,99.451z M12.863,99.451
			c0,23.863,9.67,45.455,25.306,61.096l0,0c15.638,15.641,37.235,25.309,61.095,25.309l0,0c23.865,0,45.457-9.668,61.097-25.309l0,0
			c15.641-15.641,25.309-37.232,25.309-61.096l0,0c0-23.858-9.668-45.455-25.309-61.095l0,0
			c-15.641-15.64-37.231-25.309-61.097-25.309l0,0c-23.863,0-45.458,9.668-61.095,25.309l0,0
			C22.533,53.996,12.863,75.593,12.863,99.451L12.863,99.451L12.863,99.451z"/>
	</g>
	<g>
		<path fill="#FFFFFF" d="M31.031,102.915l0.387,2.845c-0.096,0.122-0.244,0.272-0.44,0.465c-0.202,0.181-0.433,0.383-0.705,0.604
			c-0.27,0.232-0.497,0.413-0.673,0.562l-1.093,0.887c-0.491,0.394-0.818,0.695-0.992,0.888c-0.174,0.19-0.272,0.394-0.297,0.614
			c-0.025,0.221-0.005,0.584,0.065,1.098l0.055,0.393l2.777-0.383c0.294-0.039,0.524-0.109,0.693-0.191
			c0.168-0.09,0.287-0.252,0.35-0.502c0.063-0.242,0.063-0.584,0-1.039l0.723-0.09l0.735,5.338l-0.718,0.102
			c-0.09-0.656-0.245-1.068-0.458-1.219c-0.214-0.162-0.553-0.213-1.012-0.152l-6.717,0.938c-0.458,0.062-0.765,0.201-0.932,0.404
			c-0.164,0.211-0.204,0.645-0.111,1.299l-0.735,0.101l-0.425-2.447c-0.033-0.192-0.073-0.403-0.111-0.645
			c-0.038-0.253-0.073-0.474-0.101-0.685c-0.025-0.152-0.058-0.435-0.101-0.808c-0.052-0.534-0.09-1.026-0.108-1.5
			c-0.02-0.464-0.008-0.836,0.03-1.118c0.042-0.395,0.159-0.795,0.34-1.179c0.181-0.392,0.445-0.716,0.786-0.986
			c0.35-0.282,0.77-0.452,1.271-0.522c0.353-0.051,0.707-0.01,1.064,0.091c0.358,0.11,0.69,0.312,0.998,0.624
			c0.312,0.302,0.582,0.725,0.808,1.269c0.174-0.413,0.403-0.774,0.7-1.088c0.297-0.312,0.851-0.825,1.659-1.51
			c0.463-0.397,0.808-0.729,1.037-0.978s0.38-0.469,0.446-0.67c0.063-0.187,0.091-0.424,0.081-0.705L31.031,102.915z
			 M23.833,108.409c-0.849,0.11-1.377,0.452-1.582,0.997c-0.204,0.562-0.25,1.248-0.136,2.085c0.018,0.12,0.028,0.2,0.043,0.271
			c0.01,0.062,0.02,0.131,0.035,0.211l4.275-0.582l-0.068-0.494c-0.111-0.797-0.333-1.44-0.66-1.934
			C25.411,108.46,24.774,108.277,23.833,108.409z"/>
		<path fill="#FFFFFF" d="M31.205,96.938l0.01,5.448h-0.728c0-0.446-0.043-0.791-0.131-1.032c-0.088-0.222-0.219-0.373-0.396-0.447
			c-0.174-0.065-0.42-0.105-0.742-0.105l-6.75,0.02c-0.466,0-0.795,0.102-0.984,0.293c-0.186,0.191-0.282,0.625-0.282,1.305h-0.725
			l-0.015-5.448l0.726-0.005c0,0.454,0.047,0.796,0.138,1.027c0.093,0.237,0.227,0.388,0.396,0.463
			c0.171,0.065,0.418,0.101,0.74,0.101l6.75-0.02c0.307,0,0.546-0.041,0.72-0.101c0.177-0.07,0.307-0.222,0.403-0.443
			c0.096-0.221,0.141-0.574,0.141-1.047L31.205,96.938z"/>
		<path fill="#FFFFFF" d="M32.337,85.533l-0.101,0.735c-0.458,0.05-0.886,0.182-1.277,0.383c0.36,0.453,0.66,0.957,0.892,1.511
			c0.227,0.553,0.285,1.264,0.174,2.134c-0.128,0.962-0.481,1.823-1.055,2.579c-0.574,0.755-1.312,1.324-2.21,1.702
			c-0.896,0.373-1.868,0.499-2.915,0.363c-0.743-0.101-1.438-0.333-2.08-0.68c-0.639-0.357-1.181-0.81-1.636-1.364
			c-0.446-0.564-0.773-1.198-0.978-1.914c-0.204-0.715-0.251-1.48-0.144-2.286c0.174-1.329,0.751-2.371,1.738-3.132
			c-0.209-0.141-0.524-0.297-0.937-0.463l0.09-0.706l3.938,0.393l-0.101,0.755c-0.683,0.05-1.307,0.211-1.874,0.503
			c-0.564,0.282-1.02,0.655-1.357,1.107c-0.34,0.454-0.541,0.947-0.614,1.48c-0.078,0.6,0.015,1.159,0.279,1.682
			c0.265,0.514,0.715,0.958,1.347,1.31c0.637,0.363,1.455,0.604,2.452,0.735c0.977,0.131,1.8,0.121,2.478-0.01
			c0.677-0.141,1.203-0.357,1.576-0.645s0.64-0.599,0.803-0.917c0.164-0.322,0.262-0.625,0.302-0.917
			c0.081-0.649-0.01-1.249-0.292-1.812c-0.277-0.559-0.657-1.037-1.141-1.436c-0.478-0.397-0.975-0.689-1.478-0.871L28.319,85
			L32.337,85.533z"/>
		<path fill="#FFFFFF" d="M36.678,71.948l-1.671,5.015l-0.695-0.227c0.141-0.413,0.196-0.74,0.179-0.982
			c-0.02-0.237-0.108-0.418-0.257-0.534c-0.148-0.121-0.365-0.221-0.645-0.312l-3.059-1.027l-1.576,4.733l3.057,1.021
			c0.423,0.136,0.755,0.151,1.004,0.04c0.25-0.11,0.478-0.479,0.688-1.108l0.69,0.227l-1.685,5.055l-0.689-0.231
			c0.133-0.408,0.194-0.725,0.173-0.972c-0.018-0.247-0.101-0.428-0.247-0.549c-0.148-0.111-0.362-0.222-0.652-0.312l-6.402-2.146
			c-0.287-0.091-0.519-0.136-0.7-0.131c-0.184,0.01-0.357,0.101-0.521,0.272c-0.167,0.176-0.317,0.474-0.461,0.896l-0.692-0.227
			l1.687-5.05l0.692,0.232c-0.209,0.624-0.249,1.047-0.121,1.289c0.124,0.242,0.403,0.433,0.835,0.574l2.51,0.835l1.576-4.723
			l-2.513-0.836c-0.284-0.1-0.519-0.15-0.702-0.141c-0.179,0-0.353,0.085-0.511,0.257c-0.164,0.176-0.322,0.478-0.463,0.907
			l-0.693-0.227l1.674-5.015l0.69,0.227c-0.144,0.428-0.202,0.76-0.174,0.997c0.025,0.236,0.113,0.408,0.254,0.528
			c0.144,0.111,0.357,0.212,0.645,0.307l6.405,2.14c0.272,0.086,0.504,0.131,0.683,0.136c0.179,0,0.354-0.085,0.526-0.267
			c0.171-0.172,0.322-0.474,0.468-0.896L36.678,71.948z"/>
		<path fill="#FFFFFF" d="M42.386,61.675l-2.46,4.426l-0.637-0.353c0.212-0.373,0.333-0.66,0.375-0.861
			c0.045-0.202-0.038-0.357-0.234-0.474c-0.139-0.07-0.295-0.121-0.469-0.146l-1.357-0.176l-1.692,3.051l0.483,0.564
			c0.267,0.322,0.483,0.524,0.632,0.609c0.279,0.156,0.511,0.141,0.705-0.03c0.194-0.176,0.367-0.407,0.534-0.689l0.635,0.353
			l-1.798,3.237l-0.637-0.357c0.141-0.257,0.216-0.503,0.219-0.735c0-0.237-0.083-0.514-0.262-0.826
			c-0.179-0.312-0.466-0.705-0.854-1.168l-5.589-6.646l0.368-0.66l8.905,1.213c0.629,0.076,1.065,0.116,1.299,0.121
			c0.237,0,0.453-0.05,0.647-0.171c0.192-0.11,0.378-0.322,0.549-0.634L42.386,61.675z M36.789,63.972l-3.993-0.529l2.593,3.056
			L36.789,63.972z"/>
		<path fill="#FFFFFF" d="M50.105,52.007L48.3,54.243c-0.159,0.01-0.373,0-0.64-0.01c-0.272-0.025-0.584-0.05-0.926-0.101
			c-0.353-0.041-0.64-0.076-0.869-0.106l-1.397-0.191c-0.623-0.085-1.063-0.126-1.32-0.115c-0.262,0-0.481,0.07-0.657,0.201
			c-0.179,0.131-0.428,0.393-0.75,0.791l-0.254,0.317l2.183,1.762c0.226,0.192,0.435,0.318,0.612,0.373
			c0.179,0.065,0.38,0.041,0.599-0.086c0.224-0.121,0.476-0.357,0.758-0.705l0.566,0.458l-3.389,4.189l-0.564-0.463
			c0.408-0.504,0.604-0.892,0.574-1.158c-0.032-0.267-0.226-0.544-0.591-0.836l-5.267-4.271c-0.36-0.287-0.667-0.422-0.935-0.402
			c-0.264,0.02-0.606,0.292-1.027,0.806l-0.576-0.468l1.502-1.984c0.108-0.151,0.242-0.327,0.391-0.524
			c0.151-0.197,0.294-0.373,0.428-0.534c0.104-0.131,0.277-0.337,0.526-0.629c0.35-0.403,0.688-0.775,1.015-1.098
			c0.33-0.333,0.609-0.579,0.833-0.746c0.327-0.242,0.698-0.428,1.101-0.559c0.405-0.136,0.823-0.166,1.261-0.101
			c0.438,0.065,0.851,0.257,1.242,0.569c0.279,0.222,0.501,0.509,0.667,0.841c0.164,0.333,0.239,0.715,0.227,1.148
			c-0.015,0.438-0.136,0.921-0.373,1.455c0.42-0.15,0.843-0.231,1.274-0.227c0.431,0,1.173,0.061,2.235,0.176
			c0.604,0.065,1.08,0.096,1.42,0.091c0.339-0.005,0.604-0.05,0.788-0.131c0.186-0.085,0.375-0.227,0.576-0.428L50.105,52.007z
			 M41.18,50.507c-0.662-0.539-1.271-0.69-1.813-0.464c-0.549,0.227-1.082,0.67-1.611,1.32c-0.073,0.096-0.128,0.161-0.171,0.217
			c-0.035,0.055-0.083,0.11-0.136,0.176l3.356,2.724l0.315-0.397c0.498-0.614,0.82-1.213,0.958-1.803
			C42.22,51.7,41.92,51.106,41.18,50.507z"/>
		<path fill="#FFFFFF" d="M55.83,40.119c0.506,0.589,0.858,1.208,1.065,1.853c0.207,0.649,0.287,1.269,0.237,1.853
			c-0.045,0.594-0.182,1.118-0.403,1.591c-0.477,0.987-1.265,1.954-2.37,2.896L50.63,51.5l-0.471-0.559
			c0.345-0.297,0.574-0.548,0.697-0.765c0.119-0.217,0.149-0.413,0.088-0.589c-0.055-0.181-0.194-0.393-0.403-0.639l-4.403-5.157
			c-0.302-0.352-0.586-0.539-0.854-0.559c-0.267-0.025-0.66,0.187-1.178,0.629l-0.486-0.564l1.719-1.536
			c0.063-0.056,0.305-0.267,0.728-0.639c0.425-0.378,0.669-0.594,0.735-0.65c0.672-0.574,1.271-1.027,1.803-1.349
			c0.526-0.333,1.058-0.579,1.586-0.75c0.479-0.162,0.982-0.242,1.503-0.237c0.523,0,1.027,0.075,1.521,0.231
			c0.486,0.157,0.957,0.378,1.399,0.67C55.065,39.333,55.468,39.69,55.83,40.119z M53.847,41.75
			c-0.723-0.852-1.488-1.42-2.304-1.717c-0.808-0.297-1.591-0.317-2.334-0.065c-0.322,0.11-0.629,0.267-0.919,0.473
			c-0.297,0.202-0.697,0.524-1.203,0.957l4.907,5.74c0.279,0.328,0.498,0.554,0.659,0.68c0.164,0.122,0.358,0.157,0.58,0.101
			c0.221-0.056,0.501-0.227,0.828-0.503c0.975-0.841,1.377-1.768,1.193-2.795C55.072,43.593,54.609,42.636,53.847,41.75z"/>
		<path fill="#FFFFFF" d="M65.791,36.549c0.174,0.282,0.297,0.619,0.368,1.012c0.071,0.393,0.07,0.811,0,1.249
			c-0.068,0.443-0.234,0.871-0.496,1.279c-0.267,0.408-0.642,0.761-1.136,1.062c-0.488,0.297-1.034,0.483-1.644,0.563
			c-0.612,0.076-1.207,0.01-1.803-0.206c0.06,0.423,0.156,0.78,0.289,1.093l-0.626,0.378l-1.904-3.143l0.622-0.373
			c0.388,0.377,0.801,0.71,1.241,0.987c0.438,0.272,0.927,0.443,1.466,0.514c0.537,0.065,1.067-0.06,1.599-0.382
			c0.461-0.282,0.753-0.629,0.876-1.053c0.123-0.418,0.07-0.826-0.159-1.204c-0.133-0.221-0.292-0.382-0.476-0.493
			c-0.186-0.106-0.398-0.182-0.639-0.207c-0.242-0.035-0.547-0.04-0.917-0.01c-0.375,0.025-0.788,0.061-1.247,0.116
			c-0.718,0.076-1.332,0.091-1.85,0.046c-0.517-0.051-0.944-0.151-1.28-0.292c-0.337-0.136-0.606-0.297-0.815-0.484
			c-0.207-0.176-0.377-0.388-0.519-0.619c-0.252-0.408-0.383-0.886-0.405-1.415c-0.02-0.534,0.106-1.058,0.378-1.577
			c0.274-0.513,0.687-0.937,1.246-1.274c0.431-0.262,0.894-0.418,1.402-0.458c0.506-0.045,1,0.02,1.488,0.181
			c-0.035-0.242-0.123-0.549-0.264-0.937l0.637-0.388l1.556,2.558l-0.637,0.388c-1.302-1.118-2.507-1.345-3.63-0.665
			c-0.405,0.247-0.665,0.554-0.778,0.917c-0.115,0.363-0.075,0.715,0.134,1.058c0.159,0.262,0.38,0.443,0.649,0.554
			c0.272,0.095,0.579,0.146,0.912,0.13c0.335-0.01,0.864-0.055,1.582-0.13c0.873-0.096,1.571-0.136,2.092-0.136
			c0.526,0.005,1.027,0.106,1.508,0.302C65.095,35.688,65.488,36.045,65.791,36.549z"/>
		<path fill="#FFFFFF" d="M78.062,28.879c0.358,0.912,0.477,1.853,0.355,2.81c-0.123,0.967-0.514,1.848-1.173,2.663
			c-0.659,0.811-1.571,1.445-2.724,1.899c-0.941,0.368-1.833,0.543-2.673,0.519c-0.839-0.021-1.586-0.196-2.238-0.534
			c-0.657-0.332-1.211-0.761-1.669-1.284c-0.461-0.523-0.806-1.093-1.05-1.712c-0.345-0.881-0.471-1.808-0.362-2.765
			c0.11-0.957,0.491-1.838,1.14-2.654c0.649-0.815,1.561-1.45,2.731-1.908c1.068-0.418,2.042-0.604,2.929-0.544
			c0.884,0.055,1.636,0.267,2.266,0.634c0.625,0.368,1.141,0.806,1.551,1.325C77.548,27.837,77.858,28.356,78.062,28.879z
			 M75.66,29.791c-0.217-0.564-0.476-1.078-0.768-1.541s-0.637-0.851-1.04-1.163c-0.401-0.307-0.856-0.504-1.367-0.574
			c-0.509-0.081-1.075,0.005-1.689,0.247c-0.841,0.332-1.42,0.8-1.729,1.404c-0.315,0.609-0.429,1.259-0.353,1.959
			c0.081,0.695,0.266,1.424,0.559,2.17c0.164,0.418,0.36,0.831,0.589,1.254c0.229,0.428,0.542,0.836,0.932,1.224
			c0.388,0.393,0.874,0.66,1.453,0.8c0.576,0.146,1.224,0.076,1.943-0.206c0.71-0.277,1.229-0.669,1.541-1.173
			c0.314-0.509,0.481-1.037,0.498-1.601c0.016-0.559-0.035-1.068-0.156-1.526C75.955,30.606,75.819,30.184,75.66,29.791z"/>
		<path fill="#FFFFFF" d="M91.159,21.573c-0.504,0.095-0.854,0.207-1.055,0.352c-0.199,0.142-0.31,0.312-0.325,0.519
			c-0.018,0.206,0.015,0.533,0.098,0.982l1.508,8.384l-0.715,0.131l-8.401-6.974l1.055,5.821c0.08,0.443,0.161,0.76,0.254,0.952
			c0.088,0.187,0.257,0.317,0.496,0.382c0.247,0.065,0.619,0.055,1.115-0.03l0.133,0.716l-3.933,0.705l-0.128-0.715
			c0.468-0.085,0.798-0.201,0.987-0.342c0.191-0.146,0.289-0.322,0.307-0.528c0.015-0.212-0.02-0.539-0.098-0.982l-0.975-5.393
			c-0.078-0.438-0.148-0.766-0.212-0.977c-0.065-0.217-0.156-0.393-0.271-0.544c-0.119-0.151-0.287-0.257-0.502-0.317
			c-0.221-0.065-0.508-0.086-0.868-0.056l-0.133-0.715l3.084-0.559l7.301,6.022l-0.874-4.829c-0.068-0.393-0.156-0.69-0.244-0.891
			c-0.093-0.202-0.26-0.338-0.494-0.413c-0.237-0.076-0.589-0.07-1.055,0.01l-0.134-0.715l3.948-0.709L91.159,21.573z"/>
		<path fill="#FFFFFF" d="M103.332,31.503l-5.44-0.186l0.018-0.726c0.458,0.015,0.8-0.02,1.04-0.096
			c0.234-0.08,0.39-0.201,0.468-0.377c0.078-0.171,0.121-0.418,0.131-0.74l0.24-6.748c0.015-0.463-0.071-0.795-0.255-0.992
			c-0.188-0.196-0.619-0.307-1.294-0.332l0.025-0.73l5.446,0.196l-0.025,0.725c-0.453-0.015-0.801,0.02-1.035,0.101
			c-0.23,0.081-0.389,0.202-0.465,0.373c-0.078,0.171-0.127,0.418-0.134,0.741l-0.235,6.748c-0.012,0.307,0.015,0.543,0.078,0.72
			c0.06,0.182,0.203,0.317,0.424,0.417c0.221,0.106,0.566,0.167,1.045,0.182L103.332,31.503z"/>
		<path fill="#FFFFFF" d="M117.328,23.265c-0.503-0.081-0.866-0.085-1.107-0.025c-0.242,0.071-0.394,0.202-0.479,0.388
			c-0.085,0.191-0.155,0.508-0.23,0.962l-1.324,8.414l-0.721-0.116l-5.645-9.346l-0.916,5.852c-0.07,0.443-0.092,0.771-0.07,0.981
			c0.02,0.207,0.141,0.383,0.348,0.524c0.205,0.146,0.559,0.257,1.058,0.333l-0.111,0.72l-3.944-0.619l0.116-0.721
			c0.468,0.076,0.819,0.076,1.044,0c0.229-0.075,0.387-0.206,0.467-0.397c0.08-0.197,0.155-0.514,0.227-0.962l0.854-5.413
			c0.065-0.438,0.106-0.765,0.116-0.992c0.011-0.227-0.01-0.423-0.069-0.604c-0.066-0.176-0.192-0.327-0.373-0.468
			c-0.188-0.131-0.457-0.242-0.809-0.337l0.115-0.721l3.089,0.489l4.925,8.092l0.756-4.844c0.061-0.397,0.09-0.71,0.061-0.926
			c-0.016-0.221-0.131-0.403-0.321-0.554c-0.202-0.151-0.534-0.256-1.008-0.333l0.116-0.72l3.957,0.625L117.328,23.265z"/>
		<path fill="#FFFFFF" d="M129.15,32.243c-0.262,0.735-0.623,1.35-1.082,1.853c-0.459,0.499-0.957,0.872-1.49,1.123
			c-0.528,0.252-1.062,0.398-1.576,0.434c-1.098,0.081-2.326-0.116-3.695-0.609l-4.611-1.652l0.24-0.68
			c0.424,0.146,0.766,0.227,1.019,0.217c0.241,0,0.433-0.076,0.56-0.217c0.125-0.136,0.235-0.357,0.346-0.665l2.287-6.385
			c0.16-0.438,0.182-0.78,0.062-1.022c-0.11-0.242-0.494-0.479-1.129-0.705l0.247-0.701l2.189,0.73
			c0.07,0.025,0.373,0.131,0.912,0.312c0.538,0.176,0.852,0.282,0.932,0.317c0.826,0.292,1.521,0.589,2.07,0.887
			c0.543,0.297,1.021,0.629,1.434,1.001c0.373,0.337,0.695,0.73,0.953,1.188c0.257,0.453,0.447,0.932,0.554,1.435
			c0.104,0.503,0.146,1.018,0.11,1.551C129.448,31.19,129.338,31.72,129.15,32.243z M126.749,31.337
			c0.373-1.053,0.489-2,0.337-2.855c-0.141-0.851-0.508-1.536-1.098-2.059c-0.252-0.222-0.543-0.408-0.877-0.569
			c-0.315-0.146-0.795-0.332-1.418-0.559l-2.545,7.11c-0.145,0.408-0.235,0.71-0.256,0.911c-0.031,0.202,0.039,0.388,0.196,0.554
			c0.156,0.166,0.438,0.317,0.851,0.463c1.205,0.434,2.211,0.317,3.017-0.347C125.757,33.315,126.352,32.439,126.749,31.337z"/>
		<path fill="#FFFFFF" d="M138.759,39.554l-1.823,3.026l-8.308-4.743l0.356-0.629c0.574,0.328,0.992,0.453,1.254,0.383
			c0.253-0.07,0.498-0.307,0.727-0.71l3.344-5.861c0.155-0.267,0.252-0.494,0.281-0.67c0.03-0.176-0.025-0.368-0.177-0.563
			c-0.142-0.197-0.423-0.408-0.83-0.645l0.362-0.635l7.744,4.417l-1.26,2.493l-0.635-0.362c0.161-0.62,0.223-1.098,0.171-1.431
			c-0.06-0.337-0.19-0.599-0.388-0.785c-0.201-0.181-0.538-0.408-1.002-0.675l-1.742-0.997l-1.883,3.298l0.947,0.539
			c0.33,0.186,0.594,0.302,0.785,0.332c0.189,0.035,0.361-0.01,0.522-0.136c0.151-0.125,0.342-0.347,0.563-0.68l0.654,0.373
			L136.657,38l-0.63-0.362c0.171-0.353,0.271-0.635,0.291-0.841c0.021-0.201-0.034-0.377-0.161-0.523
			c-0.13-0.146-0.353-0.307-0.675-0.499l-0.967-0.544l-1.25,2.19c-0.211,0.373-0.356,0.645-0.432,0.826
			c-0.081,0.182-0.111,0.348-0.098,0.504c0.017,0.161,0.102,0.322,0.254,0.473c0.154,0.156,0.396,0.322,0.729,0.514l0.756,0.428
			c0.317,0.182,0.64,0.312,0.978,0.393c0.327,0.085,0.726,0.041,1.188-0.141c0.463-0.171,0.957-0.579,1.469-1.234L138.759,39.554z"
			/>
		<path fill="#FFFFFF" d="M150.451,43.17c-0.549,0.685-1.178,1.038-1.895,1.053c-0.705,0.015-1.39-0.151-2.043-0.514
			c-0.654-0.363-1.3-0.796-1.935-1.304l-0.56-0.448l-1.758,2.19c-0.195,0.247-0.322,0.458-0.382,0.64
			c-0.052,0.182-0.021,0.373,0.101,0.584s0.361,0.463,0.726,0.755l-0.453,0.574l-4.215-3.389l0.458-0.564
			c0.354,0.287,0.645,0.463,0.881,0.523c0.229,0.066,0.424,0.046,0.589-0.045c0.152-0.095,0.327-0.262,0.524-0.503l4.244-5.293
			c0.187-0.236,0.317-0.443,0.379-0.619c0.055-0.171,0.02-0.368-0.086-0.579c-0.111-0.217-0.348-0.469-0.711-0.756l0.474-0.579
			l2.438,1.858c0.131,0.091,0.263,0.196,0.412,0.312c0.15,0.116,0.262,0.207,0.357,0.272c0.086,0.07,0.211,0.171,0.383,0.307
			c0.206,0.171,0.362,0.297,0.463,0.383c0.475,0.413,0.907,0.841,1.305,1.274c0.394,0.438,0.686,1.017,0.871,1.732
			C151.206,41.749,151.021,42.46,150.451,43.17z M148.537,41.654c0.54-0.67,0.699-1.274,0.494-1.813
			c-0.211-0.533-0.635-1.052-1.27-1.561c-0.115-0.095-0.277-0.222-0.494-0.377l-2.697,3.369l0.562,0.458
			c0.604,0.484,1.184,0.771,1.729,0.866C147.4,42.687,147.959,42.375,148.537,41.654z"/>
		<path fill="#FFFFFF" d="M155.396,54.777l-2.668,2.311l-6.445-7.075l0.544-0.493c0.442,0.493,0.806,0.745,1.065,0.755
			c0.269,0.015,0.574-0.136,0.918-0.453l4.994-4.537c0.228-0.207,0.385-0.393,0.475-0.554c0.08-0.161,0.091-0.357,0.011-0.589
			c-0.087-0.231-0.283-0.518-0.595-0.871l0.537-0.488l5.998,6.591l-1.969,1.984l-0.488-0.539c0.343-0.534,0.543-0.977,0.6-1.309
			c0.055-0.337,0.016-0.629-0.126-0.866c-0.131-0.237-0.382-0.554-0.735-0.952l-1.354-1.491l-2.805,2.558l0.734,0.806
			c0.252,0.282,0.463,0.468,0.641,0.559c0.166,0.096,0.348,0.101,0.537,0.035c0.184-0.075,0.435-0.231,0.745-0.474l0.515,0.559
			l-2.648,2.402l-0.482-0.539c0.271-0.277,0.457-0.513,0.533-0.705c0.08-0.187,0.09-0.373,0.016-0.549
			c-0.082-0.176-0.241-0.403-0.493-0.68l-0.75-0.821l-1.863,1.697c-0.317,0.287-0.538,0.503-0.665,0.649
			c-0.136,0.146-0.211,0.297-0.251,0.453c-0.03,0.151,0,0.327,0.101,0.519c0.096,0.197,0.271,0.433,0.535,0.725l0.571,0.634
			c0.253,0.267,0.521,0.494,0.808,0.68c0.297,0.176,0.688,0.257,1.188,0.236c0.494-0.025,1.088-0.267,1.771-0.72L155.396,54.777z"/>
		<path fill="#FFFFFF" d="M168.354,62.602c-0.277-0.433-0.52-0.72-0.722-0.851c-0.211-0.131-0.411-0.167-0.608-0.101
			c-0.196,0.061-0.487,0.217-0.871,0.469l-7.186,4.562l-0.398-0.614l3.283-10.414l-4.994,3.177
			c-0.373,0.242-0.641,0.438-0.785,0.594c-0.143,0.156-0.192,0.362-0.162,0.609c0.029,0.252,0.183,0.594,0.454,1.017l-0.615,0.393
			l-2.146-3.374l0.614-0.388c0.259,0.398,0.488,0.665,0.695,0.781c0.201,0.121,0.407,0.15,0.604,0.085
			c0.2-0.065,0.491-0.217,0.864-0.463l4.628-2.941c0.377-0.242,0.649-0.428,0.82-0.564c0.177-0.141,0.312-0.292,0.402-0.458
			c0.097-0.166,0.125-0.357,0.102-0.589c-0.02-0.227-0.109-0.499-0.268-0.821l0.615-0.393l1.676,2.638L161.539,64l4.139-2.633
			c0.344-0.216,0.584-0.403,0.734-0.564c0.152-0.161,0.217-0.362,0.202-0.608c-0.021-0.252-0.162-0.58-0.419-0.978l0.615-0.393
			l2.149,3.384L168.354,62.602z"/>
		<path fill="#FFFFFF" d="M169.43,77.391c-0.72,0.282-1.425,0.423-2.1,0.413c-0.676-0.015-1.289-0.136-1.833-0.367
			c-0.538-0.237-0.997-0.534-1.369-0.896c-0.786-0.771-1.444-1.823-1.983-3.178l-1.817-4.546L161,68.544
			c0.167,0.423,0.338,0.72,0.504,0.906c0.167,0.181,0.348,0.272,0.534,0.272c0.187,0.005,0.428-0.056,0.729-0.171l6.305-2.518
			c0.423-0.171,0.695-0.377,0.801-0.629c0.105-0.237,0.035-0.68-0.216-1.315l0.685-0.276l0.905,2.12
			c0.03,0.076,0.151,0.373,0.362,0.891c0.223,0.529,0.353,0.826,0.383,0.912c0.333,0.816,0.564,1.521,0.705,2.135
			c0.142,0.604,0.201,1.188,0.201,1.743c0,0.504-0.086,1.007-0.262,1.5c-0.166,0.493-0.402,0.947-0.705,1.359
			c-0.308,0.413-0.67,0.786-1.088,1.118C170.422,76.913,169.954,77.185,169.43,77.391z M168.523,74.989
			c1.033-0.413,1.822-0.957,2.365-1.632c0.541-0.675,0.812-1.41,0.812-2.186c0-0.342-0.057-0.685-0.151-1.032
			c-0.101-0.348-0.272-0.821-0.522-1.436l-7.01,2.79c-0.402,0.162-0.689,0.302-0.855,0.413c-0.167,0.111-0.262,0.282-0.282,0.514
			c-0.021,0.231,0.052,0.544,0.211,0.946c0.474,1.188,1.229,1.868,2.257,2.03C166.383,75.558,167.439,75.417,168.523,74.989z"/>
		<path fill="#FFFFFF" d="M170.32,89.451l-3.483,0.625l-1.944-9.366l0.715-0.141c0.131,0.645,0.313,1.037,0.539,1.184
			c0.228,0.15,0.561,0.176,1.019,0.075l6.61-1.365c0.304-0.065,0.523-0.146,0.687-0.236c0.149-0.101,0.251-0.262,0.306-0.504
			c0.053-0.242,0.026-0.589-0.074-1.047l0.716-0.151l1.821,8.727l-2.707,0.71l-0.152-0.715c0.574-0.292,0.968-0.564,1.188-0.826
			c0.217-0.262,0.334-0.534,0.334-0.801c0.01-0.277-0.041-0.675-0.151-1.193l-0.408-1.974l-3.722,0.77l0.223,1.073
			c0.08,0.368,0.166,0.634,0.271,0.8c0.101,0.167,0.252,0.267,0.447,0.307c0.196,0.031,0.488,0.021,0.883-0.035l0.155,0.75
			l-3.501,0.725l-0.15-0.715c0.389-0.101,0.66-0.212,0.826-0.333c0.172-0.121,0.267-0.272,0.293-0.463
			c0.029-0.196,0-0.473-0.082-0.846l-0.227-1.082l-2.473,0.519c-0.412,0.081-0.715,0.151-0.906,0.211
			c-0.182,0.061-0.333,0.151-0.434,0.272c-0.11,0.116-0.17,0.282-0.182,0.494c-0.02,0.216,0.012,0.514,0.092,0.896l0.17,0.841
			c0.076,0.357,0.196,0.68,0.354,0.992c0.156,0.302,0.454,0.569,0.896,0.806c0.438,0.231,1.072,0.322,1.903,0.282L170.32,89.451z"/>
		<path fill="#FFFFFF" d="M177.486,102.693c-0.016-0.519-0.086-0.877-0.19-1.099c-0.112-0.221-0.272-0.347-0.47-0.393
			c-0.205-0.052-0.528-0.065-0.986-0.052l-8.51,0.293l-0.025-0.734l8.112-7.301l-5.912,0.196c-0.452,0.015-0.774,0.05-0.981,0.116
			c-0.2,0.065-0.353,0.211-0.447,0.438c-0.105,0.237-0.15,0.6-0.131,1.108l-0.725,0.025l-0.132-3.988l0.726-0.03
			c0.015,0.478,0.08,0.815,0.19,1.027c0.12,0.212,0.281,0.342,0.483,0.383c0.211,0.045,0.533,0.06,0.982,0.045l5.481-0.186
			c0.438-0.015,0.771-0.04,0.987-0.071c0.222-0.03,0.418-0.095,0.584-0.186c0.16-0.095,0.291-0.247,0.388-0.458
			c0.097-0.201,0.157-0.483,0.182-0.846l0.73-0.03l0.101,3.132l-7.015,6.354l4.899-0.161c0.401-0.02,0.705-0.055,0.922-0.11
			c0.211-0.066,0.367-0.212,0.479-0.434c0.109-0.222,0.15-0.574,0.141-1.047l0.726-0.025l0.132,4.008L177.486,102.693z"/>
		<path fill="#FFFFFF" d="M173.464,115.63l0.11-0.745c0.664,0.03,1.168-0.051,1.51-0.222c0.354-0.181,0.574-0.394,0.689-0.646
			c0.106-0.231,0.197-0.533,0.236-0.865l0.201-1.34l-7.784-1.129c-0.312-0.05-0.554-0.05-0.733-0.02
			c-0.184,0.04-0.334,0.172-0.459,0.383c-0.125,0.221-0.228,0.555-0.287,0.997l-0.725-0.103l0.773-5.346l0.715,0.109
			c-0.09,0.654-0.061,1.088,0.105,1.311c0.156,0.211,0.469,0.353,0.933,0.422l7.785,1.129l0.161-1.129
			c0.064-0.442,0.08-0.826,0.05-1.117c-0.021-0.312-0.181-0.594-0.464-0.865c-0.281-0.264-0.756-0.464-1.409-0.596l0.11-0.739
			l3.018,0.44l-1.521,10.502L173.464,115.63z"/>
	</g>
	<g>
		<path fill="#FFFFFF" d="M31.192,124.119c-0.33,0.111-0.647,0.091-0.949-0.061c-0.307-0.15-0.513-0.394-0.625-0.715
			c-0.108-0.312-0.093-0.635,0.056-0.938c0.144-0.303,0.38-0.514,0.712-0.635c0.327-0.11,0.647-0.09,0.952,0.052
			c0.309,0.149,0.521,0.382,0.631,0.715c0.116,0.332,0.099,0.653-0.055,0.956C31.768,123.798,31.524,124.009,31.192,124.119z"/>
		<path fill="#FFFFFF" d="M35.223,139.78c-0.292,0.149-0.629,0.262-1.03,0.321c-0.393,0.061-0.808,0.051-1.249-0.041
			c-0.433-0.08-0.854-0.261-1.256-0.543c-0.403-0.271-0.743-0.676-1.025-1.168c-0.277-0.504-0.446-1.058-0.501-1.672
			c-0.063-0.604,0.03-1.199,0.267-1.783c-0.426,0.041-0.796,0.131-1.108,0.252l-0.353-0.635l3.205-1.793l0.353,0.625
			c-0.39,0.383-0.735,0.776-1.03,1.208c-0.292,0.425-0.48,0.917-0.563,1.441c-0.086,0.532,0.022,1.075,0.328,1.61
			c0.262,0.474,0.599,0.774,1.017,0.916c0.416,0.142,0.821,0.102,1.211-0.121c0.225-0.121,0.393-0.281,0.509-0.453
			c0.119-0.182,0.197-0.393,0.232-0.635c0.037-0.242,0.053-0.543,0.043-0.916c-0.016-0.361-0.038-0.785-0.078-1.248
			c-0.05-0.715-0.041-1.33,0.025-1.854c0.068-0.515,0.179-0.937,0.33-1.269c0.151-0.322,0.322-0.596,0.517-0.785
			c0.186-0.201,0.397-0.373,0.632-0.504c0.42-0.231,0.896-0.354,1.43-0.354c0.536-0.011,1.052,0.133,1.563,0.424
			c0.504,0.293,0.914,0.725,1.234,1.288c0.245,0.443,0.378,0.917,0.403,1.421c0.03,0.504-0.045,1.006-0.224,1.479
			c0.239-0.021,0.553-0.101,0.941-0.222l0.368,0.646l-2.616,1.46l-0.365-0.654c1.168-1.248,1.431-2.457,0.791-3.596
			c-0.234-0.413-0.532-0.686-0.889-0.806c-0.357-0.132-0.71-0.11-1.057,0.091c-0.275,0.15-0.463,0.361-0.574,0.634
			c-0.113,0.271-0.168,0.563-0.174,0.906c0.005,0.333,0.03,0.866,0.081,1.581c0.061,0.876,0.078,1.582,0.061,2.095
			c-0.022,0.522-0.141,1.027-0.353,1.501C36.102,139.096,35.739,139.486,35.223,139.78z"/>
		<path fill="#FFFFFF" d="M40.435,151.725l-0.456-0.584c0.287-0.373,0.496-0.766,0.622-1.188c-0.574-0.062-1.141-0.201-1.694-0.422
			c-0.559-0.224-1.105-0.677-1.651-1.371c-0.594-0.765-0.965-1.62-1.103-2.558c-0.136-0.937-0.027-1.863,0.337-2.77
			c0.36-0.907,0.959-1.684,1.79-2.337c0.587-0.464,1.236-0.795,1.936-1.009c0.7-0.211,1.407-0.28,2.118-0.2
			c0.712,0.062,1.397,0.271,2.052,0.635c0.652,0.354,1.231,0.847,1.729,1.49c0.831,1.058,1.168,2.206,1.017,3.444
			c0.255-0.061,0.577-0.172,0.99-0.354l0.436,0.562l-3.034,2.539l-0.471-0.594c0.448-0.523,0.768-1.088,0.957-1.691
			c0.189-0.604,0.239-1.188,0.151-1.754c-0.081-0.562-0.292-1.058-0.622-1.471c-0.37-0.482-0.834-0.806-1.392-0.986
			c-0.554-0.17-1.184-0.149-1.883,0.052c-0.703,0.19-1.445,0.614-2.241,1.237c-0.773,0.604-1.352,1.198-1.722,1.772
			c-0.373,0.584-0.587,1.108-0.645,1.581c-0.058,0.463-0.026,0.866,0.087,1.208c0.114,0.343,0.262,0.625,0.443,0.856
			c0.403,0.514,0.902,0.865,1.496,1.067c0.596,0.181,1.203,0.251,1.828,0.181c0.619-0.061,1.173-0.201,1.654-0.434l0.471,0.596
			L40.435,151.725z"/>
		<path fill="#FFFFFF" d="M51.81,162.49l-3.956-3.506l0.484-0.543c0.324,0.281,0.602,0.463,0.831,0.533
			c0.229,0.08,0.425,0.07,0.593-0.021c0.164-0.091,0.351-0.251,0.542-0.474l2.14-2.407l-3.732-3.304l-2.137,2.407
			c-0.292,0.332-0.438,0.636-0.433,0.906c0.007,0.272,0.254,0.634,0.75,1.067l-0.484,0.543l-3.982-3.524l0.481-0.554
			c0.322,0.281,0.599,0.464,0.828,0.544s0.431,0.069,0.599-0.021c0.164-0.08,0.348-0.242,0.546-0.464l4.477-5.046
			c0.201-0.23,0.337-0.433,0.4-0.604c0.063-0.161,0.051-0.362-0.045-0.586c-0.093-0.211-0.31-0.474-0.645-0.765l0.479-0.554
			l3.988,3.535l-0.48,0.544c-0.492-0.435-0.872-0.636-1.144-0.615c-0.269,0.021-0.556,0.201-0.853,0.543l-1.758,1.976l3.729,3.304
			l1.755-1.984c0.199-0.211,0.337-0.413,0.405-0.584c0.07-0.161,0.058-0.353-0.038-0.573c-0.095-0.222-0.315-0.483-0.654-0.775
			l0.486-0.555l3.955,3.506l-0.486,0.543c-0.332-0.291-0.617-0.482-0.846-0.543c-0.229-0.071-0.423-0.062-0.581,0.029
			c-0.159,0.081-0.34,0.241-0.542,0.463l-4.474,5.057c-0.194,0.222-0.328,0.412-0.398,0.572c-0.075,0.172-0.06,0.363,0.035,0.586
			c0.093,0.23,0.313,0.492,0.65,0.785L51.81,162.49z"/>
		<path fill="#FFFFFF" d="M67.437,165.753c-0.499,0.835-1.158,1.511-1.991,2.015c-0.831,0.504-1.77,0.744-2.818,0.725
			c-1.047-0.02-2.105-0.342-3.175-0.967c-0.875-0.514-1.566-1.098-2.062-1.771c-0.501-0.675-0.823-1.369-0.967-2.095
			c-0.141-0.726-0.156-1.431-0.022-2.104c0.128-0.686,0.357-1.318,0.692-1.884c0.486-0.825,1.133-1.489,1.949-1.994
			c0.821-0.514,1.75-0.765,2.79-0.755c1.044,0.01,2.107,0.332,3.192,0.967c0.99,0.584,1.737,1.229,2.236,1.963
			c0.509,0.728,0.806,1.451,0.906,2.176c0.096,0.716,0.073,1.399-0.075,2.035C67.938,164.695,67.721,165.259,67.437,165.753z
			 M65.237,164.424c0.307-0.523,0.546-1.038,0.732-1.562c0.181-0.514,0.271-1.025,0.27-1.529c-0.003-0.504-0.134-0.987-0.388-1.432
			c-0.26-0.452-0.675-0.846-1.244-1.178c-0.786-0.453-1.511-0.613-2.178-0.492c-0.667,0.141-1.251,0.441-1.752,0.944
			c-0.501,0.494-0.954,1.089-1.359,1.773c-0.222,0.393-0.433,0.805-0.627,1.247c-0.191,0.443-0.322,0.938-0.383,1.481
			c-0.067,0.554,0.025,1.097,0.27,1.642c0.246,0.543,0.7,1.008,1.364,1.398c0.66,0.385,1.287,0.555,1.881,0.475
			c0.594-0.062,1.112-0.252,1.563-0.584c0.451-0.332,0.816-0.694,1.103-1.066C64.773,165.158,65.025,164.785,65.237,164.424z"/>
		<path fill="#FFFFFF" d="M80.979,170.678c-0.319,0.916-0.838,1.713-1.558,2.366c-0.718,0.655-1.591,1.078-2.619,1.271
			c-1.032,0.181-2.132,0.069-3.311-0.334c-0.955-0.332-1.743-0.774-2.364-1.34c-0.622-0.562-1.073-1.178-1.36-1.853
			c-0.279-0.685-0.428-1.369-0.433-2.063c-0.01-0.694,0.095-1.359,0.312-1.975c0.31-0.906,0.818-1.691,1.519-2.348
			c0.707-0.653,1.566-1.088,2.588-1.277c1.027-0.202,2.127-0.091,3.321,0.321c1.08,0.372,1.941,0.866,2.581,1.48
			c0.635,0.614,1.068,1.27,1.309,1.953c0.24,0.695,0.343,1.359,0.325,2.015C81.267,169.55,81.161,170.145,80.979,170.678z
			 M78.565,169.811c0.194-0.572,0.332-1.127,0.408-1.67c0.081-0.545,0.068-1.067-0.035-1.562c-0.101-0.492-0.322-0.936-0.662-1.319
			c-0.342-0.392-0.824-0.704-1.448-0.905c-0.858-0.303-1.606-0.322-2.236-0.061c-0.629,0.262-1.141,0.686-1.533,1.259
			c-0.393,0.584-0.723,1.249-0.981,2.024c-0.144,0.413-0.267,0.865-0.371,1.329c-0.103,0.474-0.128,0.987-0.086,1.53
			c0.046,0.543,0.242,1.066,0.589,1.562c0.345,0.483,0.879,0.845,1.612,1.099c0.72,0.25,1.369,0.29,1.936,0.109
			c0.572-0.182,1.042-0.482,1.418-0.896c0.373-0.412,0.665-0.836,0.871-1.259C78.253,170.617,78.424,170.204,78.565,169.811z"/>
		<path fill="#FFFFFF" d="M92.108,174.323l-0.632,3.534l-9.454-1.5l0.118-0.715c0.649,0.101,1.085,0.069,1.304-0.092
			c0.216-0.15,0.36-0.464,0.436-0.927l1.06-6.656c0.05-0.312,0.055-0.554,0.02-0.735s-0.159-0.332-0.37-0.463
			c-0.212-0.131-0.544-0.231-0.99-0.303l0.111-0.715l5.337,0.835l-0.113,0.728c-0.448-0.071-0.788-0.071-1.027-0.021
			c-0.242,0.053-0.411,0.152-0.511,0.312c-0.093,0.16-0.168,0.394-0.222,0.715l-0.967,6.104c-0.078,0.475-0.11,0.825-0.098,1.049
			c0.015,0.211,0.119,0.381,0.307,0.522c0.194,0.151,0.526,0.252,1.002,0.332c0.599,0.091,1.133,0.131,1.597,0.11
			c0.466-0.021,0.924-0.19,1.367-0.523c0.45-0.342,0.783-0.906,1.007-1.701L92.108,174.323z"/>
		<path fill="#FFFFFF" d="M109.241,172.35c0.045,0.775-0.041,1.49-0.269,2.135c-0.226,0.635-0.537,1.179-0.926,1.621
			c-0.395,0.434-0.814,0.775-1.283,1.018c-0.976,0.504-2.184,0.797-3.636,0.887l-4.89,0.303l-0.048-0.734
			c0.453-0.03,0.793-0.092,1.02-0.191c0.229-0.101,0.373-0.242,0.436-0.412c0.058-0.182,0.076-0.435,0.058-0.756l-0.408-6.768
			c-0.027-0.465-0.143-0.786-0.345-0.969c-0.201-0.181-0.642-0.24-1.319-0.2l-0.046-0.745l2.299-0.189
			c0.076,0,0.398-0.021,0.963-0.072c0.565-0.041,0.889-0.061,0.977-0.08c0.879-0.04,1.634-0.04,2.256,0.021
			c0.613,0.05,1.188,0.173,1.709,0.353c0.486,0.162,0.936,0.395,1.352,0.716c0.414,0.323,0.771,0.685,1.068,1.099
			c0.297,0.424,0.529,0.887,0.71,1.389C109.1,171.271,109.211,171.796,109.241,172.35z M106.673,172.46
			c-0.062-1.106-0.332-2.022-0.803-2.75c-0.472-0.733-1.078-1.219-1.821-1.46c-0.322-0.109-0.664-0.16-1.023-0.182
			c-0.354-0.01-0.863,0-1.533,0.041l0.456,7.533c0.026,0.434,0.065,0.744,0.124,0.946c0.05,0.19,0.187,0.331,0.396,0.422
			c0.211,0.091,0.534,0.132,0.963,0.101c1.283-0.079,2.164-0.573,2.635-1.51C106.548,174.675,106.753,173.629,106.673,172.46z"/>
		<path fill="#FFFFFF" d="M117.156,176.096l-5.348,1.057l-0.142-0.715c0.442-0.09,0.776-0.201,0.987-0.332
			c0.211-0.129,0.337-0.291,0.373-0.463c0.039-0.19,0.023-0.442-0.041-0.754l-1.305-6.628c-0.086-0.454-0.246-0.756-0.468-0.905
			c-0.231-0.143-0.675-0.162-1.335-0.031l-0.141-0.715l5.353-1.047l0.132,0.715c-0.443,0.08-0.771,0.19-0.978,0.332
			c-0.212,0.132-0.333,0.293-0.373,0.464c-0.04,0.19-0.024,0.433,0.04,0.755l1.299,6.627c0.061,0.292,0.131,0.523,0.237,0.686
			c0.104,0.149,0.272,0.262,0.508,0.303c0.242,0.061,0.595,0.039,1.058-0.062L117.156,176.096z"/>
		<path fill="#FFFFFF" d="M125.688,170.375c0.105,0.312,0.141,0.676,0.115,1.078c-0.025,0.393-0.119,0.795-0.297,1.208
			c-0.171,0.413-0.434,0.774-0.785,1.118c-0.357,0.332-0.807,0.584-1.359,0.755c-0.543,0.183-1.123,0.223-1.731,0.161
			c-0.614-0.07-1.179-0.281-1.692-0.635c-0.045,0.434-0.039,0.807,0.01,1.139l-0.693,0.222l-1.098-3.515l0.693-0.211
			c0.281,0.462,0.604,0.886,0.969,1.259c0.361,0.372,0.795,0.653,1.299,0.846c0.508,0.19,1.057,0.19,1.641,0.011
			c0.52-0.162,0.883-0.435,1.104-0.815c0.228-0.373,0.268-0.786,0.137-1.209c-0.081-0.231-0.191-0.433-0.344-0.595
			c-0.159-0.141-0.346-0.262-0.572-0.354c-0.223-0.08-0.523-0.16-0.887-0.23c-0.368-0.061-0.786-0.121-1.244-0.17
			c-0.71-0.103-1.314-0.242-1.797-0.403c-0.5-0.171-0.887-0.373-1.18-0.584c-0.291-0.222-0.522-0.435-0.674-0.665
			c-0.162-0.221-0.277-0.475-0.357-0.725c-0.146-0.465-0.166-0.957-0.057-1.481c0.106-0.522,0.354-1.006,0.735-1.431
			c0.394-0.434,0.896-0.754,1.521-0.946c0.479-0.15,0.967-0.181,1.471-0.11c0.494,0.08,0.966,0.252,1.398,0.523
			c0.025-0.23,0.021-0.563-0.029-0.967l0.715-0.223l0.896,2.861l-0.715,0.221c-0.992-1.398-2.109-1.902-3.359-1.51
			c-0.459,0.141-0.779,0.372-0.98,0.704c-0.202,0.321-0.236,0.675-0.122,1.059c0.097,0.291,0.258,0.522,0.494,0.685
			c0.247,0.172,0.534,0.281,0.86,0.353c0.328,0.071,0.852,0.15,1.565,0.252c0.871,0.121,1.558,0.242,2.063,0.372
			c0.504,0.121,0.974,0.344,1.396,0.645C125.213,169.379,125.512,169.811,125.688,170.375z"/>
		<path fill="#FFFFFF" d="M135.145,160.908l-0.681,0.333c-0.353-0.574-0.7-0.957-1.042-1.138c-0.338-0.184-0.635-0.254-0.906-0.203
			c-0.263,0.041-0.55,0.143-0.855,0.293l-1.219,0.595l3.449,7.069c0.141,0.281,0.271,0.482,0.407,0.613
			c0.13,0.12,0.322,0.172,0.573,0.162c0.253-0.021,0.574-0.122,0.982-0.322l0.316,0.653l-4.835,2.367l-0.331-0.654
			c0.604-0.293,0.941-0.563,1.027-0.815c0.085-0.262,0.029-0.594-0.172-1.008l-3.459-7.069l-1.022,0.504
			c-0.407,0.192-0.721,0.394-0.95,0.584c-0.238,0.192-0.389,0.483-0.449,0.867c-0.061,0.382,0.041,0.886,0.303,1.5l-0.68,0.333
			l-1.334-2.75l9.535-4.662L135.145,160.908z"/>
		<path fill="#FFFFFF" d="M150.1,159.761l-2.332,1.683c-0.156-0.03-0.357-0.102-0.613-0.182c-0.258-0.092-0.549-0.201-0.871-0.343
			c-0.322-0.131-0.594-0.241-0.807-0.321l-1.3-0.555c-0.573-0.252-0.991-0.402-1.249-0.464c-0.251-0.06-0.474-0.06-0.674,0.03
			c-0.212,0.07-0.523,0.262-0.938,0.563l-0.332,0.231l1.643,2.275c0.176,0.241,0.342,0.413,0.493,0.523
			c0.161,0.109,0.362,0.131,0.608,0.08c0.246-0.07,0.549-0.221,0.916-0.493l0.43,0.594l-4.371,3.152l-0.434-0.595
			c0.533-0.383,0.814-0.705,0.86-0.967c0.04-0.263-0.075-0.584-0.343-0.967l-3.973-5.499c-0.263-0.372-0.528-0.584-0.785-0.635
			c-0.269-0.05-0.666,0.121-1.203,0.515l-0.439-0.604l1.975-1.521c0.142-0.123,0.322-0.254,0.514-0.404
			c0.197-0.149,0.384-0.293,0.555-0.402c0.133-0.102,0.354-0.251,0.664-0.462c0.449-0.304,0.867-0.563,1.27-0.808
			c0.414-0.23,0.746-0.394,1.008-0.494c0.373-0.149,0.781-0.229,1.209-0.25c0.423-0.021,0.835,0.05,1.238,0.23
			c0.402,0.182,0.755,0.463,1.048,0.877c0.211,0.291,0.352,0.614,0.422,0.986c0.069,0.361,0.046,0.744-0.08,1.168
			c-0.125,0.423-0.372,0.847-0.745,1.309c0.448-0.039,0.877,0,1.289,0.112c0.418,0.12,1.124,0.36,2.115,0.755
			c0.574,0.23,1.017,0.372,1.344,0.464c0.327,0.08,0.596,0.11,0.801,0.08c0.201-0.03,0.418-0.122,0.665-0.263L150.1,159.761z
			 M141.876,155.964c-0.498-0.694-1.042-0.997-1.626-0.926c-0.585,0.08-1.219,0.36-1.902,0.854c-0.092,0.07-0.162,0.121-0.224,0.172
			c-0.04,0.039-0.104,0.08-0.171,0.121l2.523,3.515l0.401-0.302c0.649-0.465,1.113-0.957,1.399-1.481
			C142.566,157.384,142.436,156.739,141.876,155.964z"/>
		<path fill="#FFFFFF" d="M155.033,154.967l-3.979,3.727l-0.492-0.532c0.32-0.304,0.549-0.574,0.658-0.797
			c0.11-0.222,0.137-0.423,0.065-0.595c-0.07-0.182-0.212-0.393-0.433-0.625l-4.619-4.925c-0.316-0.331-0.607-0.502-0.881-0.514
			c-0.271,0-0.653,0.224-1.147,0.687l-0.494-0.533l3.97-3.728l0.504,0.534c-0.334,0.302-0.555,0.573-0.66,0.795
			c-0.104,0.23-0.131,0.434-0.064,0.604c0.064,0.172,0.211,0.383,0.428,0.614l4.617,4.925c0.211,0.223,0.402,0.373,0.568,0.453
			c0.171,0.082,0.367,0.082,0.6,0c0.23-0.091,0.516-0.303,0.855-0.623L155.033,154.967z"/>
		<path fill="#FFFFFF" d="M163.131,145.43l-0.474,0.584c-0.423-0.212-0.853-0.322-1.289-0.361c0.069,0.584,0.056,1.168-0.04,1.752
			c-0.102,0.595-0.43,1.238-0.986,1.914c-0.609,0.744-1.365,1.287-2.246,1.621c-0.896,0.342-1.818,0.442-2.785,0.28
			c-0.961-0.149-1.849-0.562-2.664-1.229c-0.578-0.483-1.051-1.036-1.404-1.681c-0.357-0.636-0.578-1.312-0.664-2.016
			c-0.085-0.715-0.023-1.43,0.177-2.145c0.206-0.717,0.568-1.391,1.082-2.016c0.851-1.037,1.897-1.621,3.127-1.732
			c-0.101-0.241-0.282-0.543-0.549-0.896l0.459-0.554l3.132,2.406l-0.482,0.595c-0.604-0.322-1.219-0.515-1.854-0.563
			c-0.635-0.061-1.219,0.021-1.742,0.223c-0.528,0.211-0.956,0.522-1.305,0.936c-0.382,0.465-0.599,0.987-0.649,1.572
			c-0.05,0.584,0.102,1.188,0.448,1.833c0.353,0.634,0.911,1.278,1.697,1.923c0.756,0.614,1.46,1.048,2.104,1.289
			c0.654,0.241,1.209,0.333,1.682,0.281c0.474-0.051,0.855-0.16,1.164-0.352c0.307-0.182,0.558-0.395,0.744-0.615
			c0.414-0.504,0.649-1.067,0.711-1.691c0.061-0.624-0.01-1.229-0.211-1.822c-0.203-0.604-0.465-1.107-0.797-1.521l0.482-0.585
			L163.131,145.43z"/>
		<path fill="#FFFFFF" d="M163.555,129.973l-0.363,0.653c-0.618-0.272-1.117-0.384-1.5-0.354c-0.383,0.041-0.68,0.151-0.871,0.344
			c-0.19,0.191-0.377,0.433-0.539,0.726l-0.68,1.179l6.832,3.906c0.272,0.152,0.493,0.242,0.68,0.272
			c0.178,0.03,0.369-0.03,0.564-0.183c0.196-0.149,0.407-0.433,0.631-0.814l0.635,0.353l-2.676,4.683l-0.629-0.361
			c0.326-0.573,0.453-0.986,0.383-1.248c-0.07-0.263-0.303-0.514-0.711-0.736l-6.832-3.896l-0.563,0.985
			c-0.222,0.394-0.377,0.727-0.464,1.027c-0.085,0.282-0.045,0.614,0.121,0.967c0.171,0.354,0.527,0.705,1.098,1.059l-0.373,0.665
			l-2.648-1.513l5.268-9.225L163.555,129.973z"/>
		<path fill="#FFFFFF" d="M168.298,121.3c0.321,0.111,0.562,0.322,0.716,0.625c0.141,0.302,0.17,0.624,0.06,0.946
			s-0.316,0.562-0.619,0.715c-0.302,0.15-0.619,0.172-0.952,0.061c-0.327-0.11-0.574-0.312-0.725-0.614
			c-0.151-0.302-0.178-0.624-0.07-0.945c0.109-0.333,0.32-0.573,0.624-0.726C167.632,121.21,167.954,121.188,168.298,121.3z"/>
	</g>
</g>
</svg>
